<svg xmlns="http://www.w3.org/2000/svg" width="375" viewBox="0 0 375 375" height="375" version="1.0"><defs><clipPath id="a"><path d="M 21 79.925781 L 353 79.925781 L 353 193 L 21 193 Z M 21 79.925781"/></clipPath><clipPath id="b"><path d="M 7 214 L 367 214 L 367 295.175781 L 7 295.175781 Z M 7 214"/></clipPath></defs><path fill="#FFF" d="M-37.5 -37.5H412.5V412.5H-37.5z"/><path fill="#FFF" d="M-37.5 -37.5H412.5V412.5H-37.5z"/><path fill="#FFF" d="M-37.5 -37.5H412.5V412.5H-37.5z"/><g clip-path="url(#a)"><path fill="#252F3E" d="M 108.503906 158.085938 C 108.503906 162.515625 108.984375 166.109375 109.824219 168.742188 C 110.78125 171.378906 111.976562 174.25 113.652344 177.363281 C 114.25 178.320312 114.488281 179.277344 114.488281 180.117188 C 114.488281 181.3125 113.773438 182.511719 112.214844 183.707031 L 104.675781 188.738281 C 103.597656 189.457031 102.523438 189.816406 101.5625 189.816406 C 100.367188 189.816406 99.171875 189.214844 97.972656 188.136719 C 96.300781 186.34375 94.863281 184.425781 93.667969 182.511719 C 92.46875 180.476562 91.273438 178.199219 89.957031 175.449219 C 80.621094 186.460938 68.894531 191.96875 54.769531 191.96875 C 44.71875 191.96875 36.699219 189.09375 30.835938 183.351562 C 24.972656 177.601562 21.980469 169.9375 21.980469 160.363281 C 21.980469 150.183594 25.570312 141.925781 32.871094 135.699219 C 40.171875 129.472656 49.863281 126.359375 62.191406 126.359375 C 66.261719 126.359375 70.449219 126.71875 74.875 127.316406 C 79.304688 127.917969 83.851562 128.875 88.640625 129.953125 L 88.640625 121.210938 C 88.640625 112.109375 86.722656 105.765625 83.015625 102.054688 C 79.183594 98.34375 72.722656 96.546875 63.507812 96.546875 C 59.320312 96.546875 55.011719 97.027344 50.582031 98.105469 C 46.15625 99.179688 41.847656 100.5 37.65625 102.175781 C 35.742188 103.011719 34.308594 103.492188 33.46875 103.730469 C 32.632812 103.96875 32.03125 104.089844 31.554688 104.089844 C 29.878906 104.089844 29.042969 102.890625 29.042969 100.378906 L 29.042969 94.511719 C 29.042969 92.597656 29.28125 91.160156 29.878906 90.320312 C 30.476562 89.484375 31.554688 88.644531 33.230469 87.808594 C 37.417969 85.652344 42.445312 83.855469 48.308594 82.417969 C 54.171875 80.863281 60.394531 80.144531 66.976562 80.144531 C 81.21875 80.144531 91.632812 83.378906 98.332031 89.84375 C 104.914062 96.308594 108.265625 106.125 108.265625 119.296875 L 108.265625 158.085938 Z M 59.917969 176.285156 C 63.867188 176.285156 67.9375 175.566406 72.242188 174.128906 C 76.550781 172.695312 80.382812 170.058594 83.613281 166.46875 C 85.527344 164.195312 86.964844 161.679688 87.679688 158.804688 C 88.398438 155.933594 88.878906 152.460938 88.878906 148.390625 L 88.878906 143.359375 C 85.410156 142.523438 81.699219 141.804688 77.867188 141.324219 C 74.039062 140.847656 70.328125 140.605469 66.617188 140.605469 C 58.601562 140.605469 52.738281 142.164062 48.789062 145.394531 C 44.835938 148.628906 42.921875 153.179688 42.921875 159.164062 C 42.921875 164.789062 44.359375 168.980469 47.351562 171.855469 C 50.222656 174.847656 54.414062 176.285156 59.917969 176.285156 Z M 156.023438 189.214844 C 153.863281 189.214844 152.425781 188.855469 151.464844 188.019531 C 150.519531 187.300781 149.671875 185.625 148.949219 183.351562 L 120.832031 90.800781 C 120.113281 88.40625 119.753906 86.847656 119.753906 86.011719 C 119.753906 84.097656 120.710938 83.019531 122.628906 83.019531 L 134.355469 83.019531 C 136.628906 83.019531 138.1875 83.378906 139.023438 84.214844 C 139.980469 84.933594 140.699219 86.609375 141.417969 88.886719 L 161.515625 168.144531 L 180.195312 88.886719 C 180.785156 86.492188 181.507812 84.933594 182.46875 84.214844 C 183.425781 83.496094 185.09375 83.019531 187.253906 83.019531 L 196.824219 83.019531 C 199.097656 83.019531 200.652344 83.378906 201.609375 84.214844 C 202.570312 84.933594 203.402344 86.609375 203.882812 88.886719 L 222.800781 169.101562 L 243.5 88.886719 C 244.21875 86.492188 245.050781 84.933594 245.898438 84.214844 C 246.84375 83.5 248.410156 83.019531 250.558594 83.019531 L 261.695312 83.019531 C 263.601562 83.019531 264.675781 83.976562 264.675781 86.011719 C 264.675781 86.609375 264.5625 87.210938 264.449219 87.929688 C 264.324219 88.644531 264.082031 89.605469 263.601562 90.921875 L 234.761719 183.46875 C 234.039062 185.867188 233.207031 187.421875 232.246094 188.140625 C 231.285156 188.859375 229.734375 189.335938 227.699219 189.335938 L 217.410156 189.335938 C 215.136719 189.335938 213.582031 188.980469 212.621094 188.140625 C 211.664062 187.300781 210.828125 185.746094 210.351562 183.351562 L 191.800781 106.128906 L 173.375 183.230469 C 172.769531 185.625 172.046875 187.183594 171.101562 188.019531 C 170.140625 188.859375 168.460938 189.21875 166.316406 189.21875 L 156.023438 189.21875 Z M 309.796875 192.449219 C 303.570312 192.449219 297.359375 191.730469 291.375 190.292969 C 285.386719 188.855469 280.714844 187.300781 277.609375 185.503906 C 275.6875 184.425781 274.375 183.230469 273.894531 182.152344 C 273.414062 181.074219 273.175781 179.875 273.175781 178.800781 L 273.175781 172.695312 C 273.175781 170.179688 274.136719 168.980469 275.929688 168.980469 C 276.648438 168.980469 277.367188 169.101562 278.089844 169.339844 C 278.808594 169.582031 279.882812 170.058594 281.082031 170.539062 C 285.148438 172.335938 289.582031 173.769531 294.238281 174.730469 C 299.023438 175.6875 303.699219 176.164062 308.484375 176.164062 C 316.023438 176.164062 321.882812 174.847656 325.960938 172.214844 C 330.027344 169.582031 332.175781 165.75 332.175781 160.839844 C 332.175781 157.488281 331.101562 154.734375 328.957031 152.460938 C 326.796875 150.183594 322.730469 148.148438 316.855469 146.234375 L 299.503906 140.847656 C 290.765625 138.09375 284.3125 134.023438 280.359375 128.632812 C 276.40625 123.367188 274.375 117.5 274.375 111.273438 C 274.375 106.246094 275.449219 101.816406 277.609375 97.984375 C 279.769531 94.152344 282.632812 90.800781 286.21875 88.167969 C 289.820312 85.414062 293.886719 83.378906 298.671875 81.941406 C 303.457031 80.503906 308.484375 79.90625 313.75 79.90625 C 316.375 79.90625 319.128906 80.023438 321.769531 80.382812 C 324.523438 80.742188 327.035156 81.222656 329.546875 81.703125 C 331.933594 82.300781 334.207031 82.898438 336.367188 83.617188 C 338.527344 84.335938 340.191406 85.054688 341.394531 85.773438 C 343.074219 86.730469 344.273438 87.6875 344.980469 88.765625 C 345.699219 89.722656 346.066406 91.039062 346.066406 92.714844 L 346.066406 98.34375 C 346.066406 100.855469 345.105469 102.175781 343.3125 102.175781 C 342.351562 102.175781 340.800781 101.695312 338.765625 100.738281 C 331.933594 97.625 324.28125 96.066406 315.78125 96.066406 C 308.964844 96.066406 303.570312 97.144531 299.871094 99.421875 C 296.160156 101.695312 294.238281 105.167969 294.238281 110.074219 C 294.238281 113.429688 295.4375 116.300781 297.839844 118.578125 C 300.226562 120.851562 304.65625 123.125 310.996094 125.160156 L 327.996094 130.550781 C 336.605469 133.304688 342.832031 137.136719 346.546875 142.042969 C 350.246094 146.953125 352.050781 152.578125 352.050781 158.804688 C 352.050781 163.953125 350.964844 168.621094 348.933594 172.695312 C 346.785156 176.765625 343.90625 180.355469 340.191406 183.230469 C 336.496094 186.222656 332.0625 188.378906 326.90625 189.933594 C 321.527344 191.609375 315.910156 192.449219 309.796875 192.449219 Z M 309.796875 192.449219"/></g><g clip-path="url(#b)"><path fill="#F90" d="M 332.414062 250.628906 C 293.039062 279.726562 235.847656 295.175781 186.660156 295.175781 C 117.71875 295.175781 55.609375 269.667969 8.703125 227.28125 C 4.984375 223.933594 8.335938 219.386719 12.765625 222.015625 C 63.507812 251.476562 126.097656 269.316406 190.835938 269.316406 C 234.515625 269.316406 282.519531 260.21875 326.664062 241.535156 C 333.257812 238.539062 338.875 245.839844 332.410156 250.628906 Z M 348.820312 231.957031 C 343.792969 225.488281 315.542969 228.851562 302.738281 230.402344 C 298.914062 230.882812 298.304688 227.523438 301.777344 225.007812 C 324.28125 209.210938 361.257812 213.761719 365.5625 219.027344 C 369.882812 224.414062 364.378906 261.40625 343.3125 279.132812 C 340.082031 281.886719 336.960938 280.445312 338.398438 276.859375 C 343.1875 265.007812 353.84375 238.300781 348.820312 231.957031 Z M 348.820312 231.957031"/></g></svg>