<svg xmlns="http://www.w3.org/2000/svg" width="375" viewBox="0 0 375 375" height="375" version="1.0"><defs><clipPath id="a"><path d="M 7.582031 270 L 302 270 L 302 329.355469 L 7.582031 329.355469 Z M 7.582031 270"/></clipPath><clipPath id="b"><path d="M 338 283 L 367.582031 283 L 367.582031 317 L 338 317 Z M 338 283"/></clipPath></defs><path fill="#0080FF" d="M 187.582031 240.554688 L 187.582031 205.683594 C 224.476562 205.683594 253.117188 169.082031 238.953125 130.238281 C 233.753906 115.964844 222.234375 104.445312 207.863281 99.246094 C 169.03125 85.175781 132.4375 113.722656 132.4375 150.628906 L 97.683594 150.628906 C 97.683594 91.800781 154.558594 45.921875 216.222656 65.191406 C 243.128906 73.652344 264.636719 95.0625 272.996094 121.980469 C 292.257812 183.664062 246.390625 240.554688 187.582031 240.554688 Z M 187.582031 240.554688"/><path fill="#0080FF" d="M 152.925781 205.890625 L 152.925781 171.121094 L 187.683594 171.121094 L 187.683594 205.890625 Z M 126.324219 232.5 L 126.324219 205.890625 L 152.925781 205.890625 L 152.925781 232.5 Z M 126.324219 205.890625 L 104.003906 205.890625 L 104.003906 183.5625 L 126.324219 183.5625 Z M 126.324219 205.890625" fill-rule="evenodd"/><g clip-path="url(#a)"><path fill="#0080FF" d="M 38.972656 275.828125 C 34.488281 272.667969 28.78125 271.140625 22.257812 271.140625 L 7.988281 271.140625 L 7.988281 316.511719 L 22.359375 316.511719 C 28.882812 316.511719 34.589844 314.878906 39.074219 311.515625 C 41.523438 309.78125 43.457031 307.332031 44.886719 304.273438 C 46.210938 301.214844 46.925781 297.546875 46.925781 293.570312 C 46.925781 289.59375 46.210938 286.023438 44.886719 282.964844 C 43.457031 279.90625 41.523438 277.460938 38.972656 275.828125 Z M 16.347656 278.785156 L 20.832031 278.785156 C 25.824219 278.785156 29.902344 279.804688 33.0625 281.742188 C 36.527344 283.882812 38.261719 287.859375 38.261719 293.570312 C 38.261719 299.484375 36.527344 303.664062 33.0625 305.90625 C 30.105469 307.84375 26.027344 308.863281 20.933594 308.863281 L 16.347656 308.863281 Z M 56.8125 270.527344 C 55.382812 270.527344 54.261719 271.039062 53.242188 271.957031 C 52.324219 272.875 51.816406 273.996094 51.816406 275.421875 C 51.816406 276.847656 52.324219 277.972656 53.242188 278.992188 C 54.160156 279.90625 55.382812 280.417969 56.8125 280.417969 C 58.136719 280.417969 59.359375 279.90625 60.378906 278.992188 C 61.296875 278.074219 61.804688 276.847656 61.804688 275.421875 C 61.804688 273.996094 61.296875 272.875 60.378906 271.957031 C 59.359375 271.039062 58.136719 270.527344 56.8125 270.527344 Z M 52.734375 284.496094 L 60.785156 284.496094 L 60.785156 316.511719 L 52.734375 316.511719 Z M 90.039062 287.148438 C 87.59375 285.003906 84.941406 283.679688 81.984375 283.679688 C 77.5 283.679688 73.832031 285.210938 70.976562 288.269531 C 68.125 291.226562 66.59375 295.097656 66.59375 299.789062 C 66.59375 304.273438 68.023438 308.148438 70.875 311.207031 C 73.730469 314.164062 77.5 315.695312 81.882812 315.695312 C 84.941406 315.695312 87.695312 314.878906 89.835938 313.144531 L 89.835938 313.859375 C 89.835938 316.511719 89.121094 318.550781 87.695312 319.976562 C 86.265625 321.402344 84.332031 322.117188 81.882812 322.117188 C 78.214844 322.117188 75.871094 320.691406 73.015625 316.816406 L 67.511719 322.117188 L 67.613281 322.320312 C 68.839844 323.953125 70.570312 325.582031 73.015625 327.113281 C 75.359375 328.640625 78.417969 329.457031 81.984375 329.457031 C 86.777344 329.457031 90.648438 328.03125 93.503906 325.074219 C 96.359375 322.117188 97.785156 318.242188 97.785156 313.453125 L 97.785156 284.394531 L 89.835938 284.394531 L 89.835938 287.148438 Z M 87.898438 306.109375 C 86.472656 307.742188 84.636719 308.457031 82.394531 308.457031 C 80.050781 308.457031 78.316406 307.640625 76.890625 306.109375 C 75.464844 304.480469 74.851562 302.441406 74.851562 299.890625 C 74.851562 297.242188 75.566406 295.203125 76.890625 293.570312 C 78.214844 291.9375 80.152344 291.226562 82.394531 291.226562 C 84.738281 291.226562 86.472656 292.039062 87.898438 293.570312 C 89.324219 295.203125 90.039062 297.34375 90.039062 299.890625 C 90.039062 302.441406 89.324219 304.480469 87.898438 306.109375 Z M 104.816406 284.496094 L 112.871094 284.496094 L 112.871094 316.511719 L 104.816406 316.511719 Z M 108.894531 270.527344 C 107.46875 270.527344 106.347656 271.039062 105.328125 271.957031 C 104.410156 272.875 103.898438 273.996094 103.898438 275.421875 C 103.898438 276.847656 104.410156 277.972656 105.328125 278.992188 C 106.246094 279.90625 107.46875 280.417969 108.894531 280.417969 C 110.21875 280.417969 111.441406 279.90625 112.460938 278.992188 C 113.378906 278.074219 113.890625 276.847656 113.890625 275.421875 C 113.890625 273.996094 113.378906 272.875 112.460938 271.957031 C 111.441406 271.039062 110.320312 270.527344 108.894531 270.527344 Z M 130.503906 275.828125 L 122.550781 275.828125 L 122.550781 284.496094 L 117.964844 284.496094 L 117.964844 291.835938 L 122.550781 291.835938 L 122.550781 305.089844 C 122.550781 309.269531 123.367188 312.226562 125 313.960938 C 126.628906 315.695312 129.585938 316.511719 133.664062 316.511719 L 137.535156 316.40625 L 137.941406 316.40625 L 137.941406 309.066406 L 135.191406 309.167969 C 133.253906 309.167969 132.03125 308.863281 131.421875 308.148438 C 130.808594 307.4375 130.503906 306.007812 130.503906 303.867188 L 130.503906 291.734375 L 138.046875 291.734375 L 138.046875 284.394531 L 130.503906 284.394531 Z M 175.757812 271.039062 L 183.808594 271.039062 L 183.808594 316.511719 L 175.757812 316.511719 Z M 265.144531 305.089844 C 263.71875 306.722656 262.191406 308.148438 261.070312 308.863281 C 259.949219 309.578125 258.519531 309.984375 256.890625 309.984375 C 254.546875 309.984375 252.609375 309.167969 251.082031 307.332031 C 249.550781 305.601562 248.734375 303.253906 248.734375 300.605469 C 248.734375 297.851562 249.550781 295.609375 251.082031 293.875 C 252.609375 292.144531 254.546875 291.226562 256.890625 291.226562 C 259.4375 291.226562 262.191406 292.855469 264.535156 295.609375 L 269.835938 290.511719 C 266.367188 286.023438 261.984375 283.882812 256.6875 283.882812 C 252.304688 283.882812 248.429688 285.515625 245.269531 288.675781 C 242.109375 291.835938 240.582031 295.8125 240.582031 300.605469 C 240.582031 305.398438 242.210938 309.371094 245.269531 312.535156 C 248.429688 315.695312 252.203125 317.324219 256.6875 317.324219 C 262.496094 317.324219 267.183594 314.777344 270.445312 310.1875 Z M 298.273438 288.980469 C 297.152344 287.351562 295.621094 286.128906 293.683594 285.210938 C 291.75 284.292969 289.507812 283.78125 287.058594 283.78125 C 282.574219 283.78125 278.90625 285.414062 276.152344 288.675781 C 273.503906 291.9375 272.078125 295.914062 272.078125 300.707031 C 272.078125 305.601562 273.605469 309.578125 276.460938 312.636719 C 279.414062 315.695312 283.289062 317.222656 288.078125 317.222656 C 293.480469 317.222656 297.964844 314.980469 301.328125 310.699219 L 301.535156 310.496094 L 296.234375 305.398438 C 295.722656 306.007812 295.011719 306.621094 294.398438 307.230469 C 293.582031 307.945312 292.871094 308.558594 292.054688 308.964844 C 290.832031 309.578125 289.507812 309.882812 287.976562 309.882812 C 285.734375 309.882812 283.898438 309.269531 282.472656 307.945312 C 281.148438 306.722656 280.332031 305.089844 280.128906 303.050781 L 301.429688 303.050781 L 301.535156 300.09375 C 301.535156 298.054688 301.226562 296.015625 300.71875 294.183594 C 300.207031 292.347656 299.394531 290.613281 298.273438 288.980469 Z M 280.636719 296.527344 C 281.046875 294.996094 281.761719 293.671875 282.777344 292.753906 C 283.898438 291.632812 285.328125 291.125 286.957031 291.125 C 288.894531 291.125 290.421875 291.632812 291.441406 292.753906 C 292.359375 293.773438 292.972656 294.996094 293.074219 296.527344 Z M 280.636719 296.527344"/></g><path fill="#0080FF" d="M 329.15625 286.941406 C 326.707031 284.902344 323.34375 283.78125 319.167969 283.78125 C 316.550781 283.773438 314.070312 284.351562 311.726562 285.515625 C 309.585938 286.535156 307.546875 288.371094 306.222656 290.613281 L 306.324219 290.714844 L 311.523438 295.609375 C 313.664062 292.246094 316.007812 291.019531 319.167969 291.019531 C 320.898438 291.019531 322.222656 291.429688 323.34375 292.347656 C 324.363281 293.265625 324.976562 294.386719 324.976562 295.8125 L 324.976562 297.34375 C 322.9375 296.730469 321 296.425781 319.066406 296.425781 C 315.089844 296.425781 311.828125 297.34375 309.382812 299.175781 C 306.933594 301.011719 305.710938 303.765625 305.710938 307.230469 C 305.710938 310.289062 306.730469 312.636719 308.871094 314.472656 C 311.011719 316.203125 313.5625 317.121094 316.617188 317.121094 C 319.675781 317.121094 322.53125 315.898438 325.179688 313.757812 L 325.179688 316.40625 L 333.128906 316.40625 L 333.128906 295.8125 C 332.824219 292.039062 331.601562 288.980469 329.15625 286.941406 Z M 314.886719 304.273438 C 315.804688 303.664062 317.128906 303.359375 318.757812 303.359375 C 320.695312 303.359375 322.734375 303.765625 324.875 304.480469 L 324.875 307.640625 C 323.140625 309.269531 320.796875 310.085938 317.941406 310.085938 C 316.515625 310.085938 315.496094 309.78125 314.683594 309.167969 C 313.96875 308.558594 313.558594 307.84375 313.558594 306.824219 C 313.558594 305.703125 313.96875 304.886719 314.886719 304.273438 Z M 314.886719 304.273438"/><g clip-path="url(#b)"><path fill="#0080FF" d="M 363.808594 287.554688 C 361.566406 285.003906 358.40625 283.78125 354.433594 283.78125 C 351.273438 283.78125 348.621094 284.699219 346.6875 286.535156 L 346.6875 284.597656 L 338.839844 284.597656 L 338.839844 316.511719 L 346.890625 316.511719 L 346.890625 298.871094 C 346.890625 296.425781 347.5 294.488281 348.621094 293.164062 C 349.742188 291.835938 351.273438 291.125 353.414062 291.125 C 355.246094 291.125 356.574219 291.734375 357.59375 292.957031 C 358.613281 294.183594 359.121094 295.914062 359.121094 297.953125 L 359.121094 316.511719 L 367.171875 316.511719 L 367.171875 297.953125 C 367.171875 293.570312 366.050781 290 363.808594 287.554688 Z M 363.808594 287.554688"/></g><path fill="#0080FF" d="M 165.667969 286.941406 C 163.222656 284.902344 159.855469 283.78125 155.679688 283.78125 C 153.0625 283.773438 150.582031 284.351562 148.238281 285.515625 C 146.097656 286.535156 144.058594 288.371094 142.734375 290.613281 L 142.835938 290.714844 L 148.035156 295.609375 C 150.175781 292.246094 152.519531 291.019531 155.679688 291.019531 C 157.410156 291.019531 158.734375 291.429688 159.855469 292.347656 C 160.875 293.265625 161.488281 294.386719 161.488281 295.8125 L 161.488281 297.34375 C 159.449219 296.730469 157.511719 296.425781 155.578125 296.425781 C 151.601562 296.425781 148.339844 297.34375 145.894531 299.175781 C 143.449219 301.011719 142.222656 303.765625 142.222656 307.230469 C 142.222656 310.289062 143.242188 312.636719 145.382812 314.472656 C 147.523438 316.203125 150.074219 317.121094 153.128906 317.121094 C 156.1875 317.121094 159.042969 315.898438 161.691406 313.757812 L 161.691406 316.40625 L 169.640625 316.40625 L 169.640625 295.8125 C 169.335938 292.039062 168.113281 288.980469 165.667969 286.941406 Z M 151.398438 304.273438 C 152.316406 303.664062 153.640625 303.359375 155.269531 303.359375 C 157.207031 303.359375 159.246094 303.765625 161.386719 304.480469 L 161.386719 307.640625 C 159.652344 309.269531 157.308594 310.085938 154.457031 310.085938 C 153.027344 310.085938 152.007812 309.78125 151.195312 309.167969 C 150.480469 308.558594 150.074219 307.84375 150.074219 306.824219 C 150.074219 305.703125 150.480469 304.886719 151.398438 304.273438 Z M 151.398438 304.273438"/><path fill="#0080FF" d="M 213.0625 317.222656 C 200.117188 317.222656 189.621094 306.722656 189.621094 293.773438 C 189.621094 280.824219 200.117188 270.324219 213.0625 270.324219 C 226.007812 270.324219 236.503906 280.824219 236.503906 293.773438 C 236.503906 306.722656 226.007812 317.222656 213.0625 317.222656 Z M 213.0625 278.582031 C 204.703125 278.582031 197.875 285.414062 197.875 293.773438 C 197.875 302.132812 204.703125 308.964844 213.0625 308.964844 C 221.421875 308.964844 228.25 302.132812 228.25 293.773438 C 228.25 285.414062 221.421875 278.582031 213.0625 278.582031 Z M 213.0625 278.582031"/></svg>