<svg xmlns="http://www.w3.org/2000/svg" width="375" viewBox="0 0 375 375" height="375" version="1.0"><defs><clipPath id="a"><path d="M 8 71 L 368.214844 71 L 368.214844 305 L 8 305 Z M 8 71"/></clipPath></defs><g clip-path="url(#a)"><path fill="#364548" d="M 195.1875 145.277344 L 231.96875 145.277344 L 231.96875 182.867188 L 250.566406 182.867188 C 259.164062 182.867188 267.984375 181.339844 276.128906 178.578125 C 280.117188 177.230469 284.601562 175.339844 288.546875 172.972656 C 283.359375 166.195312 280.703125 157.648438 279.921875 149.207031 C 278.859375 137.734375 281.183594 122.800781 288.9375 113.820312 L 292.808594 109.351562 L 297.414062 113.054688 C 309.007812 122.367188 318.773438 135.382812 320.484375 150.226562 C 334.449219 146.117188 350.84375 147.089844 363.15625 154.199219 L 368.214844 157.109375 L 365.558594 162.296875 C 355.148438 182.613281 333.382812 188.894531 312.097656 187.785156 C 280.253906 267.074219 210.921875 304.605469 126.863281 304.605469 C 83.4375 304.605469 43.582031 288.382812 20.902344 249.863281 L 20.527344 249.230469 L 17.214844 242.515625 C 9.546875 225.554688 7 206.992188 8.722656 188.429688 L 9.25 182.867188 L 40.703125 182.867188 L 40.703125 145.277344 L 77.484375 145.277344 L 77.484375 108.511719 L 151.042969 108.511719 L 151.042969 71.746094 L 195.1875 71.746094 Z M 195.1875 145.277344"/></g><path fill="#22A0C8" d="M 314.347656 159.191406 C 316.808594 140.027344 302.46875 124.988281 293.574219 117.835938 C 283.328125 129.683594 281.722656 160.734375 297.816406 173.8125 C 288.847656 181.773438 269.933594 189 250.566406 189 L 14.84375 189 C 12.96875 209.210938 16.507812 227.820312 24.609375 243.742188 L 27.292969 248.648438 C 28.988281 251.527344 30.847656 254.316406 32.84375 256.984375 C 42.53125 257.613281 51.472656 257.824219 59.648438 257.644531 C 75.714844 257.285156 88.824219 255.394531 98.753906 251.945312 C 100.253906 251.480469 101.828125 252.320312 102.292969 253.804688 C 102.742188 255.230469 101.992188 256.757812 100.597656 257.285156 C 99.277344 257.75 97.898438 258.167969 96.472656 258.574219 C 88.65625 260.808594 80.257812 262.304688 69.441406 262.980469 C 70.089844 262.996094 68.769531 263.070312 68.769531 263.070312 C 68.394531 263.101562 67.941406 263.144531 67.566406 263.160156 C 63.308594 263.402344 58.71875 263.445312 54.007812 263.445312 C 48.863281 263.445312 43.808594 263.355469 38.136719 263.054688 L 37.988281 263.144531 C 57.625 285.21875 88.34375 298.441406 126.832031 298.441406 C 208.296875 298.441406 277.402344 262.335938 308.003906 181.292969 C 329.707031 183.527344 350.574219 177.980469 360.066406 159.460938 C 344.976562 150.78125 325.539062 153.554688 314.347656 159.191406 Z M 314.347656 159.191406"/><path fill="#37B1D9" d="M 314.347656 159.191406 C 316.808594 140.027344 302.46875 124.988281 293.574219 117.835938 C 283.328125 129.683594 281.722656 160.734375 297.816406 173.8125 C 288.847656 181.773438 269.933594 189 250.566406 189 L 28.792969 189 C 27.832031 219.949219 39.324219 243.429688 59.648438 257.644531 C 75.714844 257.285156 88.824219 255.394531 98.753906 251.945312 C 100.253906 251.480469 101.828125 252.320312 102.292969 253.804688 C 102.742188 255.230469 101.992188 256.757812 100.597656 257.285156 C 99.277344 257.75 97.898438 258.167969 96.472656 258.574219 C 88.65625 260.808594 79.539062 262.5 68.722656 263.160156 C 68.722656 263.160156 68.46875 262.90625 68.453125 262.90625 C 96.171875 277.121094 136.386719 277.074219 182.46875 259.367188 C 234.144531 239.515625 282.25 201.714844 315.804688 158.457031 C 315.324219 158.710938 314.828125 158.953125 314.347656 159.191406 Z M 314.347656 159.191406"/><path fill="#1B81A5" d="M 15.277344 213.546875 C 16.75 224.371094 19.914062 234.507812 24.609375 243.730469 L 27.292969 248.632812 C 28.988281 251.511719 30.847656 254.300781 32.84375 256.96875 C 42.53125 257.597656 51.472656 257.808594 59.648438 257.628906 C 75.714844 257.269531 88.824219 255.378906 98.753906 251.929688 C 100.253906 251.464844 101.828125 252.304688 102.292969 253.789062 C 102.742188 255.214844 101.992188 256.742188 100.597656 257.269531 C 99.277344 257.734375 97.898438 258.152344 96.472656 258.558594 C 88.65625 260.792969 79.582031 262.398438 68.769531 263.054688 C 68.394531 263.085938 67.75 263.085938 67.375 263.101562 C 63.113281 263.339844 58.566406 263.492188 53.859375 263.492188 C 48.714844 263.492188 43.464844 263.386719 37.808594 263.101562 C 57.441406 285.171875 88.34375 298.457031 126.847656 298.457031 C 196.597656 298.457031 257.273438 271.992188 292.492188 213.53125 L 15.277344 213.53125 Z M 15.277344 213.546875"/><path fill="#1D91B4" d="M 30.921875 213.546875 C 35.09375 232.558594 45.113281 247.476562 59.664062 257.628906 C 75.726562 257.269531 88.839844 255.378906 98.769531 251.929688 C 100.269531 251.464844 101.84375 252.304688 102.308594 253.789062 C 102.757812 255.214844 102.007812 256.742188 100.613281 257.269531 C 99.292969 257.734375 97.914062 258.152344 96.488281 258.558594 C 88.671875 260.792969 79.417969 262.398438 68.589844 263.054688 C 96.308594 277.269531 136.402344 277.0625 182.484375 259.367188 C 210.367188 248.660156 237.203125 232.722656 261.277344 213.515625 L 30.921875 213.515625 Z M 30.921875 213.546875"/><path fill="#23A3C2" d="M 46.839844 151.410156 L 78.714844 151.410156 L 78.714844 183.273438 L 46.839844 183.273438 Z M 49.492188 154.0625 L 52.011719 154.0625 L 52.011719 180.617188 L 49.492188 180.617188 Z M 54.21875 154.0625 L 56.828125 154.0625 L 56.828125 180.617188 L 54.21875 180.617188 Z M 59.046875 154.0625 L 61.65625 154.0625 L 61.65625 180.617188 L 59.046875 180.617188 Z M 63.878906 154.0625 L 66.488281 154.0625 L 66.488281 180.617188 L 63.878906 180.617188 Z M 68.707031 154.0625 L 71.316406 154.0625 L 71.316406 180.617188 L 68.707031 180.617188 Z M 73.539062 154.0625 L 76.058594 154.0625 L 76.058594 180.617188 L 73.539062 180.617188 Z M 83.617188 114.644531 L 115.492188 114.644531 L 115.492188 146.507812 L 83.601562 146.507812 Z M 86.273438 117.296875 L 88.792969 117.296875 L 88.792969 143.851562 L 86.273438 143.851562 Z M 91 117.296875 L 93.609375 117.296875 L 93.609375 143.851562 L 91 143.851562 Z M 95.828125 117.296875 L 98.4375 117.296875 L 98.4375 143.851562 L 95.828125 143.851562 Z M 100.65625 117.296875 L 103.269531 117.296875 L 103.269531 143.851562 L 100.65625 143.851562 Z M 105.488281 117.296875 L 108.097656 117.296875 L 108.097656 143.851562 L 105.488281 143.851562 Z M 110.316406 117.296875 L 112.839844 117.296875 L 112.839844 143.851562 L 110.316406 143.851562 Z M 110.316406 117.296875"/><path fill="#34BBDE" d="M 83.617188 151.410156 L 115.492188 151.410156 L 115.492188 183.273438 L 83.601562 183.273438 Z M 86.273438 154.0625 L 88.792969 154.0625 L 88.792969 180.617188 L 86.273438 180.617188 Z M 91 154.0625 L 93.609375 154.0625 L 93.609375 180.617188 L 91 180.617188 Z M 95.828125 154.0625 L 98.4375 154.0625 L 98.4375 180.617188 L 95.828125 180.617188 Z M 100.65625 154.0625 L 103.269531 154.0625 L 103.269531 180.617188 L 100.65625 180.617188 Z M 105.488281 154.0625 L 108.097656 154.0625 L 108.097656 180.617188 L 105.488281 180.617188 Z M 110.316406 154.0625 L 112.839844 154.0625 L 112.839844 180.617188 L 110.316406 180.617188 Z M 110.316406 154.0625"/><path fill="#23A3C2" d="M 120.398438 151.410156 L 152.273438 151.410156 L 152.273438 183.273438 L 120.398438 183.273438 Z M 123.054688 154.0625 L 125.574219 154.0625 L 125.574219 180.617188 L 123.054688 180.617188 Z M 127.777344 154.0625 L 130.386719 154.0625 L 130.386719 180.617188 L 127.777344 180.617188 Z M 132.609375 154.0625 L 135.21875 154.0625 L 135.21875 180.617188 L 132.609375 180.617188 Z M 137.4375 154.0625 L 140.046875 154.0625 L 140.046875 180.617188 L 137.4375 180.617188 Z M 142.269531 154.0625 L 144.894531 154.0625 L 144.894531 180.617188 L 142.269531 180.617188 Z M 147.097656 154.0625 L 149.617188 154.0625 L 149.617188 180.617188 L 147.097656 180.617188 Z M 147.097656 154.0625"/><path fill="#34BBDE" d="M 120.398438 114.644531 L 152.273438 114.644531 L 152.273438 146.507812 L 120.398438 146.507812 Z M 123.054688 117.296875 L 125.574219 117.296875 L 125.574219 143.851562 L 123.054688 143.851562 Z M 127.777344 117.296875 L 130.386719 117.296875 L 130.386719 143.851562 L 127.777344 143.851562 Z M 132.609375 117.296875 L 135.21875 117.296875 L 135.21875 143.851562 L 132.609375 143.851562 Z M 137.4375 117.296875 L 140.046875 117.296875 L 140.046875 143.851562 L 137.4375 143.851562 Z M 142.269531 117.296875 L 144.894531 117.296875 L 144.894531 143.851562 L 142.269531 143.851562 Z M 147.097656 117.296875 L 149.617188 117.296875 L 149.617188 143.851562 L 147.097656 143.851562 Z M 157.179688 151.410156 L 189.054688 151.410156 L 189.054688 183.273438 L 157.179688 183.273438 Z M 159.832031 154.0625 L 162.351562 154.0625 L 162.351562 180.617188 L 159.832031 180.617188 Z M 164.558594 154.0625 L 167.167969 154.0625 L 167.167969 180.617188 L 164.558594 180.617188 Z M 169.386719 154.0625 L 172 154.0625 L 172 180.617188 L 169.386719 180.617188 Z M 174.21875 154.0625 L 176.828125 154.0625 L 176.828125 180.617188 L 174.21875 180.617188 Z M 179.046875 154.0625 L 181.65625 154.0625 L 181.65625 180.617188 L 179.046875 180.617188 Z M 183.878906 154.0625 L 186.398438 154.0625 L 186.398438 180.617188 L 183.878906 180.617188 Z M 183.878906 154.0625"/><path fill="#23A3C2" d="M 157.179688 114.644531 L 189.054688 114.644531 L 189.054688 146.507812 L 157.179688 146.507812 Z M 159.832031 117.296875 L 162.351562 117.296875 L 162.351562 143.851562 L 159.832031 143.851562 Z M 164.558594 117.296875 L 167.167969 117.296875 L 167.167969 143.851562 L 164.558594 143.851562 Z M 169.386719 117.296875 L 172 117.296875 L 172 143.851562 L 169.386719 143.851562 Z M 174.21875 117.296875 L 176.828125 117.296875 L 176.828125 143.851562 L 174.21875 143.851562 Z M 179.046875 117.296875 L 181.65625 117.296875 L 181.65625 143.851562 L 179.046875 143.851562 Z M 183.878906 117.296875 L 186.398438 117.296875 L 186.398438 143.851562 L 183.878906 143.851562 Z M 183.878906 117.296875"/><path fill="#34BBDE" d="M 157.179688 77.878906 L 189.054688 77.878906 L 189.054688 109.742188 L 157.179688 109.742188 Z M 159.832031 80.53125 L 162.351562 80.53125 L 162.351562 107.085938 L 159.832031 107.085938 Z M 164.558594 80.53125 L 167.167969 80.53125 L 167.167969 107.085938 L 164.558594 107.085938 Z M 169.386719 80.53125 L 172 80.53125 L 172 107.085938 L 169.386719 107.085938 Z M 174.21875 80.53125 L 176.828125 80.53125 L 176.828125 107.085938 L 174.21875 107.085938 Z M 179.046875 80.53125 L 181.65625 80.53125 L 181.65625 107.085938 L 179.046875 107.085938 Z M 183.878906 80.53125 L 186.398438 80.53125 L 186.398438 107.085938 L 183.878906 107.085938 Z M 183.878906 80.53125"/><path fill="#23A3C2" d="M 193.957031 151.410156 L 225.832031 151.410156 L 225.832031 183.273438 L 193.957031 183.273438 Z M 196.613281 154.0625 L 199.132812 154.0625 L 199.132812 180.617188 L 196.613281 180.617188 Z M 201.339844 154.0625 L 203.949219 154.0625 L 203.949219 180.617188 L 201.339844 180.617188 Z M 206.167969 154.0625 L 208.777344 154.0625 L 208.777344 180.617188 L 206.167969 180.617188 Z M 211 154.0625 L 213.609375 154.0625 L 213.609375 180.617188 L 211 180.617188 Z M 215.828125 154.0625 L 218.4375 154.0625 L 218.4375 180.617188 L 215.828125 180.617188 Z M 220.65625 154.0625 L 223.179688 154.0625 L 223.179688 180.617188 L 220.65625 180.617188 Z M 220.65625 154.0625"/><path fill="#D3ECEC" d="M 113.5 234.941406 C 118.359375 234.882812 122.347656 238.765625 122.40625 243.625 C 122.46875 248.480469 118.582031 252.46875 113.722656 252.53125 C 113.648438 252.53125 113.558594 252.53125 113.484375 252.53125 C 108.625 252.46875 104.738281 248.480469 104.8125 243.625 C 104.886719 238.839844 108.726562 235.003906 113.5 234.941406 Z M 113.5 234.941406"/><path fill="#364548" d="M 113.5 237.429688 C 114.308594 237.429688 115.074219 237.582031 115.777344 237.851562 C 114.546875 238.570312 114.128906 240.128906 114.847656 241.359375 C 115.3125 242.15625 116.152344 242.632812 117.066406 242.632812 C 118.042969 242.632812 118.882812 242.09375 119.316406 241.300781 C 120.652344 244.507812 119.125 248.195312 115.914062 249.53125 C 112.703125 250.867188 109.011719 249.335938 107.679688 246.128906 C 106.34375 242.917969 107.875 239.230469 111.082031 237.894531 C 111.847656 237.597656 112.671875 237.429688 113.5 237.429688 Z M 113.5 237.429688"/><path fill="#BDD9D7" d="M 136.867188 298.277344 C 115.089844 287.945312 103.132812 273.898438 96.488281 258.574219 C 88.402344 260.882812 78.667969 262.351562 67.375 262.996094 C 63.113281 263.234375 58.644531 263.355469 53.949219 263.355469 C 48.53125 263.355469 42.816406 263.191406 36.832031 262.875 C 56.8125 282.832031 81.382812 298.1875 126.878906 298.472656 C 130.222656 298.472656 133.554688 298.414062 136.867188 298.277344 Z M 136.867188 298.277344"/><path fill="#D3ECEC" d="M 104.574219 272.726562 C 101.558594 268.632812 98.632812 263.507812 96.488281 258.574219 C 88.402344 260.882812 78.667969 262.367188 67.375 262.996094 C 75.144531 267.210938 86.242188 271.109375 104.574219 272.726562 Z M 104.574219 272.726562"/></svg>