<svg xmlns="http://www.w3.org/2000/svg" width="375" viewBox="0 0 375 375" height="375" version="1.0"><defs><clipPath id="a"><path d="M 13 151 L 362 151 L 362 229.203125 L 13 229.203125 Z M 13 151"/></clipPath></defs><path fill="#FFF" d="M-37.5 -37.5H412.5V412.5H-37.5z"/><path fill="#FFF" d="M-37.5 -37.5H412.5V412.5H-37.5z"/><path fill="#FFF" d="M-37.5 -37.5H412.5V412.5H-37.5z"/><g clip-path="url(#a)"><path d="M 121.625 229.378906 L 121.625 153.25 L 125.75 153.25 L 125.75 165.222656 C 126.234375 164.691406 126.683594 164.128906 127.09375 163.535156 C 130.539062 156.378906 137.804688 151.863281 145.734375 151.953125 C 155.136719 151.671875 162.777344 155.15625 167.265625 163.535156 C 167.980469 164.832031 168.609375 166.167969 169.164062 167.539062 C 169.71875 168.910156 170.1875 170.3125 170.574219 171.738281 C 170.957031 173.167969 171.257812 174.613281 171.472656 176.078125 C 171.6875 177.542969 171.8125 179.011719 171.851562 180.492188 C 171.890625 181.96875 171.84375 183.445312 171.707031 184.917969 C 171.570312 186.394531 171.34375 187.851562 171.035156 189.300781 C 170.722656 190.746094 170.328125 192.167969 169.847656 193.566406 C 169.367188 194.96875 168.808594 196.332031 168.164062 197.664062 C 163.980469 207.054688 153.648438 211.722656 142.585938 210.007812 C 140.867188 209.859375 139.1875 209.503906 137.558594 208.9375 C 135.925781 208.371094 134.386719 207.609375 132.945312 206.65625 C 131.503906 205.703125 130.203125 204.589844 129.039062 203.308594 C 127.875 202.03125 126.890625 200.625 126.078125 199.097656 L 126.078125 229.375 Z M 125.75 180.179688 L 126.671875 189.117188 C 128.300781 199.292969 134.308594 205.304688 143.742188 206.4375 C 144.839844 206.617188 145.945312 206.703125 147.0625 206.691406 C 148.175781 206.683594 149.28125 206.578125 150.375 206.378906 C 151.472656 206.175781 152.542969 205.882812 153.585938 205.5 C 154.632812 205.113281 155.636719 204.640625 156.601562 204.082031 C 157.566406 203.523438 158.476562 202.886719 159.328125 202.171875 C 160.183594 201.457031 160.972656 200.675781 161.691406 199.824219 C 162.410156 198.972656 163.054688 198.066406 163.617188 197.101562 C 164.179688 196.140625 164.660156 195.136719 165.050781 194.09375 C 168.71875 185.339844 168.449219 175.429688 164.324219 166.878906 C 163.90625 165.941406 163.414062 165.046875 162.851562 164.1875 C 162.289062 163.332031 161.660156 162.523438 160.96875 161.769531 C 160.273438 161.011719 159.523438 160.316406 158.71875 159.683594 C 157.914062 159.050781 157.0625 158.484375 156.164062 157.988281 C 155.269531 157.492188 154.335938 157.070312 153.371094 156.722656 C 152.40625 156.378906 151.421875 156.113281 150.414062 155.929688 C 149.40625 155.742188 148.390625 155.640625 147.363281 155.617188 C 146.339844 155.597656 145.320312 155.660156 144.304688 155.800781 C 143.351562 155.871094 142.410156 156.015625 141.480469 156.230469 C 140.550781 156.445312 139.640625 156.730469 138.753906 157.085938 C 137.867188 157.445312 137.011719 157.867188 136.191406 158.355469 C 135.371094 158.84375 134.589844 159.394531 133.855469 160.003906 C 133.117188 160.613281 132.433594 161.277344 131.800781 161.992188 C 131.164062 162.707031 130.589844 163.46875 130.074219 164.273438 C 129.558594 165.078125 129.105469 165.917969 128.722656 166.792969 C 128.335938 167.667969 128.019531 168.566406 127.769531 169.492188 C 126.890625 173.015625 126.21875 176.574219 125.75 180.175781 Z M 256.054688 190.527344 C 255.898438 191.855469 255.625 193.160156 255.234375 194.441406 C 254.847656 195.71875 254.34375 196.953125 253.734375 198.144531 C 253.121094 199.332031 252.40625 200.457031 251.59375 201.519531 C 250.777344 202.578125 249.875 203.558594 248.882812 204.457031 C 247.890625 205.355469 246.828125 206.15625 245.691406 206.863281 C 244.558594 207.566406 243.367188 208.164062 242.125 208.65625 C 240.882812 209.148438 239.605469 209.523438 238.292969 209.78125 C 236.984375 210.042969 235.660156 210.183594 234.324219 210.207031 C 217.03125 211.078125 208.914062 199.578125 207.625 186.308594 C 207.175781 182.703125 207.238281 179.109375 207.808594 175.523438 C 208.382812 171.9375 209.445312 168.503906 210.992188 165.222656 C 211.527344 164.101562 212.148438 163.03125 212.851562 162.011719 C 213.558594 160.988281 214.335938 160.03125 215.195312 159.132812 C 216.050781 158.238281 216.972656 157.414062 217.957031 156.660156 C 218.945312 155.910156 219.984375 155.242188 221.074219 154.65625 C 222.167969 154.070312 223.300781 153.570312 224.46875 153.164062 C 225.640625 152.757812 226.835938 152.445312 228.054688 152.226562 C 229.277344 152.011719 230.507812 151.890625 231.746094 151.867188 C 232.984375 151.84375 234.21875 151.917969 235.445312 152.09375 C 236.613281 152.191406 237.765625 152.382812 238.902344 152.660156 C 240.039062 152.941406 241.148438 153.308594 242.226562 153.761719 C 243.308594 154.214844 244.34375 154.75 245.339844 155.363281 C 246.339844 155.980469 247.28125 156.671875 248.167969 157.433594 C 249.058594 158.195312 249.882812 159.023438 250.640625 159.917969 C 251.402344 160.808594 252.085938 161.757812 252.699219 162.757812 C 253.3125 163.757812 253.839844 164.796875 254.289062 165.878906 C 254.738281 166.964844 255.101562 168.074219 255.378906 169.214844 C 256.257812 173.398438 256.902344 177.613281 257.3125 181.867188 L 211.894531 181.867188 C 211.054688 193.898438 217.511719 203.570312 226.664062 205.90625 C 238.0625 208.710938 247.804688 203.765625 251.339844 192.914062 C 252.125 190.128906 253.554688 189.738281 256.082031 190.527344 Z M 211.863281 178.015625 L 252.488281 178.015625 C 252.234375 165.199219 244.261719 155.882812 233.453125 155.777344 C 221.246094 155.578125 212.394531 164.519531 211.863281 178.015625 Z M 264.449219 190.808594 L 268.433594 190.808594 C 268.503906 192.277344 268.777344 193.707031 269.242188 195.101562 C 269.710938 196.496094 270.359375 197.800781 271.183594 199.015625 C 272.011719 200.230469 272.988281 201.3125 274.113281 202.257812 C 275.238281 203.203125 276.46875 203.976562 277.808594 204.582031 C 279.488281 205.339844 281.230469 205.902344 283.039062 206.265625 C 284.847656 206.628906 286.671875 206.785156 288.511719 206.738281 C 290.355469 206.6875 292.167969 206.433594 293.953125 205.976562 C 295.738281 205.519531 297.453125 204.867188 299.089844 204.019531 C 299.984375 203.617188 300.796875 203.089844 301.527344 202.4375 C 302.257812 201.785156 302.875 201.039062 303.375 200.195312 C 303.878906 199.355469 304.242188 198.457031 304.46875 197.5 C 304.695312 196.546875 304.773438 195.582031 304.703125 194.601562 C 304.757812 193.660156 304.65625 192.730469 304.40625 191.820312 C 304.15625 190.910156 303.765625 190.0625 303.238281 189.277344 C 302.710938 188.496094 302.074219 187.816406 301.328125 187.238281 C 300.578125 186.664062 299.757812 186.222656 298.867188 185.914062 C 294.484375 184.28125 289.824219 183.382812 285.363281 181.949219 C 280.710938 180.625 276.183594 178.964844 271.773438 176.976562 C 264.582031 173.460938 264.136719 159.769531 272.277344 155.4375 C 273.316406 154.847656 274.386719 154.328125 275.492188 153.875 C 276.59375 153.421875 277.71875 153.039062 278.871094 152.730469 C 280.019531 152.417969 281.1875 152.175781 282.367188 152.011719 C 283.546875 151.84375 284.734375 151.75 285.925781 151.734375 C 287.117188 151.714844 288.304688 151.769531 289.492188 151.902344 C 290.675781 152.03125 291.847656 152.234375 293.007812 152.511719 C 294.167969 152.785156 295.304688 153.132812 296.421875 153.554688 C 297.539062 153.972656 298.625 154.457031 299.679688 155.011719 C 304.9375 157.921875 307.84375 163.789062 306.980469 169.746094 L 303.566406 169.746094 C 303.566406 169.582031 303.257812 169.4375 303.257812 169.269531 C 302.835938 158.367188 293.683594 154.957031 283.859375 155.914062 C 280.890625 156.246094 278.074219 157.144531 275.4375 158.472656 C 274.640625 158.835938 273.921875 159.308594 273.277344 159.894531 C 272.632812 160.484375 272.089844 161.152344 271.652344 161.910156 C 271.214844 162.664062 270.902344 163.46875 270.714844 164.320312 C 270.527344 165.175781 270.472656 166.035156 270.554688 166.90625 C 270.554688 167.777344 270.6875 168.625 270.953125 169.453125 C 271.21875 170.285156 271.601562 171.054688 272.105469 171.761719 C 272.605469 172.472656 273.203125 173.089844 273.898438 173.613281 C 274.59375 174.136719 275.347656 174.542969 276.167969 174.835938 C 280.457031 176.410156 285.007812 177.421875 289.445312 178.65625 L 300.167969 181.464844 C 301.386719 181.863281 302.519531 182.4375 303.5625 183.183594 C 304.609375 183.925781 305.519531 184.808594 306.296875 185.832031 C 307.074219 186.851562 307.679688 187.96875 308.121094 189.175781 C 308.558594 190.378906 308.808594 191.625 308.871094 192.90625 C 309.730469 198.671875 306.792969 204.339844 301.601562 206.964844 C 292.222656 212.277344 276.78125 210.871094 269.902344 204.15625 C 266.382812 200.613281 264.421875 195.796875 264.460938 190.804688 Z M 359.394531 169.75 L 355.660156 169.75 C 355.660156 169.246094 355.464844 168.757812 355.40625 168.371094 C 355.394531 167.675781 355.320312 166.988281 355.1875 166.304688 C 355.054688 165.621094 354.867188 164.953125 354.621094 164.304688 C 354.371094 163.652344 354.074219 163.027344 353.722656 162.429688 C 353.367188 161.828125 352.96875 161.261719 352.519531 160.734375 C 352.070312 160.203125 351.578125 159.710938 351.046875 159.265625 C 350.511719 158.820312 349.945312 158.417969 349.347656 158.070312 C 348.746094 157.71875 348.121094 157.421875 347.46875 157.179688 C 346.816406 156.9375 346.152344 156.75 345.46875 156.621094 C 342.871094 155.875 340.226562 155.570312 337.53125 155.699219 C 334.832031 155.828125 332.230469 156.390625 329.71875 157.382812 C 328.726562 157.667969 327.800781 158.101562 326.949219 158.683594 C 326.097656 159.269531 325.359375 159.972656 324.734375 160.796875 C 324.109375 161.617188 323.628906 162.519531 323.296875 163.5 C 322.960938 164.476562 322.792969 165.484375 322.785156 166.519531 C 322.765625 167.023438 322.792969 167.523438 322.859375 168.023438 C 322.929688 168.523438 323.039062 169.015625 323.191406 169.496094 C 323.34375 169.976562 323.535156 170.441406 323.765625 170.886719 C 324 171.335938 324.265625 171.761719 324.570312 172.164062 C 324.875 172.5625 325.210938 172.9375 325.582031 173.28125 C 325.949219 173.625 326.34375 173.933594 326.765625 174.210938 C 327.1875 174.488281 327.628906 174.726562 328.09375 174.925781 C 328.554688 175.125 329.03125 175.285156 329.519531 175.402344 L 346.589844 179.789062 C 348.4375 180.234375 350.25 180.785156 352.03125 181.449219 C 357.476562 183.429688 361.171875 188.492188 361.335938 194.277344 C 361.355469 194.980469 361.324219 195.679688 361.238281 196.378906 C 361.152344 197.078125 361.015625 197.769531 360.828125 198.445312 C 360.640625 199.125 360.402344 199.785156 360.113281 200.425781 C 359.824219 201.070312 359.492188 201.6875 359.109375 202.277344 C 358.730469 202.871094 358.308594 203.429688 357.84375 203.960938 C 357.378906 204.488281 356.878906 204.980469 356.339844 205.433594 C 355.800781 205.886719 355.230469 206.292969 354.632812 206.660156 C 354.03125 207.027344 353.40625 207.347656 352.757812 207.621094 C 350.777344 208.523438 348.726562 209.210938 346.601562 209.679688 C 344.476562 210.152344 342.328125 210.398438 340.152344 210.421875 C 337.976562 210.445312 335.820312 210.238281 333.6875 209.8125 C 331.554688 209.382812 329.488281 208.738281 327.492188 207.875 C 326.675781 207.523438 325.886719 207.109375 325.132812 206.636719 C 324.378906 206.164062 323.667969 205.636719 322.992188 205.058594 C 322.316406 204.476562 321.691406 203.847656 321.113281 203.167969 C 320.535156 202.492188 320.011719 201.773438 319.542969 201.015625 C 319.074219 200.261719 318.664062 199.472656 318.316406 198.652344 C 317.964844 197.832031 317.679688 196.992188 317.460938 196.128906 C 317.238281 195.265625 317.082031 194.390625 316.996094 193.503906 C 316.90625 192.617188 316.886719 191.730469 316.933594 190.839844 L 320.582031 190.839844 C 321.957031 197.464844 326.5 202.980469 332.730469 205.589844 C 338.960938 208.199219 346.078125 207.558594 351.746094 203.886719 C 352.597656 203.441406 353.367188 202.890625 354.058594 202.226562 C 354.75 201.5625 355.335938 200.8125 355.8125 199.980469 C 356.289062 199.148438 356.640625 198.265625 356.867188 197.335938 C 357.09375 196.402344 357.183594 195.457031 357.136719 194.496094 C 357.179688 193.554688 357.070312 192.625 356.808594 191.71875 C 356.550781 190.808594 356.152344 189.964844 355.617188 189.1875 C 355.085938 188.40625 354.441406 187.734375 353.6875 187.164062 C 352.933594 186.597656 352.105469 186.164062 351.210938 185.863281 C 346.832031 184.234375 342.171875 183.363281 337.707031 181.902344 C 333.03125 180.59375 328.472656 178.957031 324.039062 176.980469 C 317.015625 173.523438 316.457031 159.945312 324.460938 155.613281 C 325.511719 155.003906 326.597656 154.460938 327.714844 153.992188 C 328.835938 153.519531 329.984375 153.125 331.152344 152.800781 C 332.324219 152.476562 333.511719 152.230469 334.714844 152.0625 C 335.917969 151.890625 337.128906 151.800781 338.34375 151.785156 C 339.558594 151.773438 340.769531 151.835938 341.976562 151.980469 C 343.183594 152.121094 344.375 152.34375 345.554688 152.640625 C 346.734375 152.9375 347.886719 153.308594 349.019531 153.753906 C 350.148438 154.199219 351.246094 154.714844 352.308594 155.304688 C 353.53125 156.035156 354.625 156.921875 355.589844 157.972656 C 356.554688 159.023438 357.347656 160.1875 357.972656 161.464844 C 358.597656 162.746094 359.03125 164.089844 359.265625 165.496094 C 359.5 166.902344 359.53125 168.3125 359.355469 169.726562 Z M 114.839844 208.832031 C 114.472656 208.96875 114.101562 209.074219 113.714844 209.144531 C 113.332031 209.214844 112.945312 209.25 112.558594 209.246094 C 112.167969 209.246094 111.78125 209.210938 111.398438 209.140625 C 111.015625 209.070312 110.640625 208.964844 110.277344 208.828125 C 109.914062 208.6875 109.5625 208.519531 109.230469 208.316406 C 108.898438 208.113281 108.585938 207.882812 108.292969 207.625 C 108 207.367188 107.734375 207.082031 107.496094 206.773438 C 107.257812 206.46875 107.046875 206.140625 106.863281 205.796875 L 92.347656 185.691406 L 90.246094 182.886719 L 73.398438 205.824219 C 73.230469 206.15625 73.03125 206.46875 72.804688 206.761719 C 72.578125 207.058594 72.324219 207.332031 72.050781 207.578125 C 71.773438 207.828125 71.476562 208.050781 71.164062 208.246094 C 70.847656 208.445312 70.515625 208.609375 70.167969 208.746094 C 69.824219 208.882812 69.46875 208.984375 69.105469 209.058594 C 68.738281 209.128906 68.371094 209.167969 68 209.171875 C 67.628906 209.175781 67.257812 209.148438 66.890625 209.085938 C 66.527344 209.027344 66.167969 208.929688 65.816406 208.804688 L 87.519531 179.652344 L 67.328125 153.308594 C 70.324219 152.226562 73.664062 153.402344 75.328125 156.117188 L 90.371094 176.464844 L 105.503906 156.195312 C 105.675781 155.871094 105.875 155.5625 106.105469 155.273438 C 106.332031 154.984375 106.582031 154.71875 106.859375 154.476562 C 107.132812 154.234375 107.429688 154.019531 107.746094 153.832031 C 108.058594 153.640625 108.390625 153.484375 108.734375 153.355469 C 109.078125 153.226562 109.429688 153.128906 109.792969 153.066406 C 110.152344 153.003906 110.519531 152.972656 110.882812 152.972656 C 111.25 152.976562 111.617188 153.011719 111.976562 153.082031 C 112.335938 153.148438 112.6875 153.25 113.03125 153.382812 L 105.207031 163.792969 L 94.59375 177.625 C 94.292969 177.890625 94.0625 178.207031 93.902344 178.574219 C 93.738281 178.9375 93.65625 179.320312 93.65625 179.71875 C 93.65625 180.121094 93.738281 180.503906 93.902344 180.867188 C 94.0625 181.234375 94.292969 181.546875 94.59375 181.816406 L 114.804688 208.832031 Z M 206.980469 153.027344 L 206.980469 156.992188 C 206.273438 156.945312 205.5625 156.9375 204.855469 156.964844 C 204.144531 156.992188 203.441406 157.054688 202.738281 157.15625 C 202.035156 157.257812 201.339844 157.398438 200.652344 157.570312 C 199.964844 157.746094 199.289062 157.957031 198.625 158.199219 C 197.957031 158.445312 197.304688 158.726562 196.667969 159.039062 C 196.03125 159.351562 195.414062 159.699219 194.8125 160.074219 C 194.210938 160.453125 193.632812 160.863281 193.074219 161.300781 C 192.519531 161.738281 191.984375 162.207031 191.476562 162.703125 C 190.964844 163.195312 190.484375 163.714844 190.027344 164.261719 C 189.574219 164.804688 189.148438 165.375 188.753906 165.964844 C 188.355469 166.554688 187.992188 167.160156 187.660156 167.789062 C 187.328125 168.417969 187.03125 169.0625 186.765625 169.71875 C 186.5 170.378906 186.269531 171.050781 186.074219 171.734375 C 185.882812 172.417969 185.722656 173.109375 185.601562 173.808594 C 185.476562 174.507812 185.390625 175.210938 185.34375 175.921875 C 185.292969 176.628906 185.28125 177.339844 185.304688 178.046875 C 185.304688 187.308594 185.304688 196.566406 185.304688 205.824219 L 185.304688 208.972656 L 181.292969 208.972656 L 181.292969 153.273438 L 185.25 153.273438 L 185.25 164.6875 C 190.105469 156.363281 197.601562 153.273438 207.007812 153.050781 Z M 13.863281 179.289062 L 15.632812 170.542969 C 20.488281 153.253906 40.285156 146.058594 53.902344 156.765625 C 61.875 163.039062 63.863281 171.921875 63.476562 181.929688 L 18.554688 181.929688 C 17.828125 199.808594 30.710938 210.605469 47.1875 205.09375 C 52.617188 203.113281 56.707031 198.59375 58.050781 192.976562 C 58.921875 190.167969 60.363281 189.6875 62.992188 190.5 C 62.773438 192.210938 62.367188 193.875 61.769531 195.496094 C 61.171875 197.113281 60.402344 198.644531 59.460938 200.089844 C 58.515625 201.535156 57.421875 202.851562 56.179688 204.050781 C 54.9375 205.246094 53.578125 206.285156 52.101562 207.171875 C 50.886719 207.835938 49.628906 208.402344 48.328125 208.871094 C 47.023438 209.335938 45.695312 209.699219 44.335938 209.953125 C 42.976562 210.210938 41.605469 210.359375 40.222656 210.402344 C 38.839844 210.445312 37.464844 210.375 36.089844 210.199219 C 34.71875 210.023438 33.371094 209.742188 32.042969 209.355469 C 30.714844 208.96875 29.425781 208.476562 28.175781 207.886719 C 26.921875 207.296875 25.726562 206.609375 24.582031 205.832031 C 23.441406 205.050781 22.363281 204.1875 21.355469 203.238281 C 17.34375 198.722656 14.925781 193.015625 14.453125 186.984375 C 14.453125 185.992188 14.121094 185.070312 13.890625 184.175781 C 13.871094 182.507812 13.859375 180.878906 13.859375 179.289062 Z M 18.609375 178.078125 L 59.234375 178.078125 C 58.980469 165.117188 50.8125 155.925781 39.917969 155.839844 C 27.789062 155.671875 19.113281 164.664062 18.578125 178.023438 Z M 18.609375 178.078125"/></g></svg>