<svg xmlns="http://www.w3.org/2000/svg" width="375" viewBox="0 0 375 375" height="375" version="1.0"><defs><clipPath id="a"><path d="M 23 3.058594 L 352 3.058594 L 352 372 L 23 372 Z M 23 3.058594"/></clipPath></defs><g clip-path="url(#a)"><path fill="#E535AB" d="M 218.902344 45.78125 L 294.539062 89.460938 C 296.675781 87.207031 299.15625 85.214844 301.984375 83.574219 C 317.675781 74.554688 337.679688 79.910156 346.796875 95.601562 C 355.816406 111.292969 350.457031 131.304688 334.761719 140.421875 C 331.960938 142.03125 329.019531 143.183594 326.027344 143.898438 L 326.027344 231.292969 C 328.996094 232.007812 331.898438 233.160156 334.671875 234.757812 C 350.457031 243.863281 355.816406 263.882812 346.695312 279.566406 C 337.679688 295.261719 317.574219 300.621094 301.894531 291.589844 C 298.761719 289.800781 296.046875 287.558594 293.785156 285.015625 L 218.59375 328.429688 C 219.667969 331.679688 220.257812 335.144531 220.257812 338.765625 C 220.257812 356.800781 205.601562 371.550781 187.464844 371.550781 C 169.328125 371.550781 154.671875 356.890625 154.671875 338.765625 C 154.671875 335.542969 155.144531 332.421875 156.003906 329.492188 L 80.378906 285.820312 C 78.273438 288.019531 75.816406 289.976562 73.042969 291.589844 C 57.257812 300.621094 37.25 295.261719 28.230469 279.566406 C 19.210938 263.882812 24.566406 243.863281 40.253906 234.757812 C 43.027344 233.160156 45.9375 232.007812 48.898438 231.289062 L 48.898438 143.898438 C 45.902344 143.183594 42.960938 142.03125 40.160156 140.421875 C 24.472656 131.398438 19.117188 111.292969 28.136719 95.601562 C 37.15625 79.910156 57.257812 74.554688 72.945312 83.574219 C 75.753906 85.207031 78.230469 87.183594 80.351562 89.425781 L 156.015625 45.730469 C 155.144531 42.777344 154.671875 39.648438 154.671875 36.40625 C 154.671875 18.273438 169.328125 3.617188 187.464844 3.617188 C 205.601562 3.617188 220.257812 18.273438 220.257812 36.40625 C 220.257812 39.667969 219.785156 42.8125 218.902344 45.78125 Z M 211.011719 59.238281 L 286.839844 103.023438 C 284.5 111.257812 285.355469 120.386719 289.960938 128.390625 C 294.578125 136.417969 302.097656 141.75 310.4375 143.824219 L 310.4375 231.328125 C 310.015625 231.433594 309.59375 231.546875 309.171875 231.660156 L 210.140625 60.117188 C 210.433594 59.828125 210.730469 59.535156 211.011719 59.238281 Z M 164.816406 60.132812 L 65.785156 231.691406 C 65.355469 231.566406 64.925781 231.449219 64.492188 231.335938 L 64.492188 143.828125 C 72.835938 141.757812 80.355469 136.421875 84.972656 128.398438 C 89.582031 120.375 90.4375 111.226562 88.074219 102.980469 L 163.882812 59.207031 C 164.1875 59.523438 164.496094 59.835938 164.816406 60.140625 Z M 196.621094 67.90625 L 295.640625 239.414062 C 293.414062 241.523438 291.46875 243.992188 289.859375 246.78125 C 288.273438 249.542969 287.121094 252.460938 286.40625 255.429688 L 88.523438 255.429688 C 87.804688 252.460938 86.660156 249.558594 85.066406 246.78125 C 83.457031 244.003906 81.507812 241.5625 79.304688 239.453125 L 178.332031 67.917969 C 181.222656 68.75 184.292969 69.199219 187.464844 69.199219 C 190.648438 69.199219 193.71875 68.746094 196.621094 67.90625 Z M 211.714844 316.671875 L 287.042969 273.171875 C 286.816406 272.453125 286.621094 271.738281 286.445312 271.019531 L 88.488281 271.019531 C 88.378906 271.441406 88.265625 271.867188 88.140625 272.289062 L 163.84375 316.007812 C 169.800781 309.816406 178.179688 305.96875 187.464844 305.96875 C 197.082031 305.96875 205.714844 310.097656 211.714844 316.671875 Z M 211.714844 316.671875" fill-rule="evenodd"/></g></svg>