<?xml version="1.0" encoding="UTF-8"?><svg xmlns="http://www.w3.org/2000/svg" xmlns:xlink="http://www.w3.org/1999/xlink" contentScriptType="text/ecmascript" width="375" zoomAndPan="magnify" contentStyleType="text/css" viewBox="0 0 375 374.999991" height="374.999991" preserveAspectRatio="xMidYMid meet" version="1.0"><defs><clipPath id="clip-0"><path d="M 28.375 28.375 L 346.375 28.375 L 346.375 346.375 L 28.375 346.375 Z M 28.375 28.375 " clip-rule="nonzero"/></clipPath></defs><g clip-path="url(#clip-0)"><path fill="rgb(97.24884%, 72.158813%, 34.509277%)" d="M 346.449219 187.4375 C 346.449219 190.042969 346.386719 192.640625 346.257812 195.242188 C 346.128906 197.839844 345.9375 200.433594 345.683594 203.023438 C 345.429688 205.613281 345.109375 208.195312 344.730469 210.769531 C 344.347656 213.34375 343.902344 215.90625 343.394531 218.460938 C 342.886719 221.011719 342.316406 223.550781 341.683594 226.074219 C 341.050781 228.601562 340.359375 231.105469 339.601562 233.597656 C 338.847656 236.085938 338.03125 238.558594 337.15625 241.007812 C 336.277344 243.457031 335.339844 245.886719 334.347656 248.289062 C 333.351562 250.695312 332.296875 253.070312 331.183594 255.425781 C 330.070312 257.777344 328.902344 260.101562 327.675781 262.394531 C 326.449219 264.691406 325.164062 266.953125 323.828125 269.1875 C 322.488281 271.417969 321.097656 273.617188 319.652344 275.78125 C 318.207031 277.945312 316.707031 280.070312 315.15625 282.160156 C 313.609375 284.25 312.007812 286.300781 310.355469 288.3125 C 308.707031 290.324219 307.007812 292.296875 305.257812 294.222656 C 303.511719 296.152344 301.714844 298.035156 299.875 299.875 C 298.035156 301.714844 296.152344 303.511719 294.222656 305.257812 C 292.296875 307.007812 290.324219 308.707031 288.3125 310.355469 C 286.300781 312.007812 284.25 313.609375 282.160156 315.15625 C 280.070312 316.707031 277.945312 318.207031 275.78125 319.652344 C 273.617188 321.097656 271.417969 322.488281 269.1875 323.828125 C 266.953125 325.164062 264.691406 326.449219 262.394531 327.675781 C 260.101562 328.902344 257.777344 330.070312 255.425781 331.183594 C 253.070312 332.296875 250.695312 333.351562 248.289062 334.347656 C 245.886719 335.339844 243.457031 336.277344 241.007812 337.15625 C 238.558594 338.03125 236.085938 338.847656 233.597656 339.601562 C 231.105469 340.359375 228.601562 341.050781 226.074219 341.683594 C 223.550781 342.316406 221.011719 342.886719 218.460938 343.394531 C 215.90625 343.902344 213.34375 344.347656 210.769531 344.730469 C 208.195312 345.109375 205.613281 345.429688 203.023438 345.683594 C 200.433594 345.9375 197.839844 346.128906 195.242188 346.257812 C 192.640625 346.386719 190.042969 346.449219 187.4375 346.449219 C 184.835938 346.449219 182.234375 346.386719 179.636719 346.257812 C 177.039062 346.128906 174.441406 345.9375 171.851562 345.683594 C 169.261719 345.429688 166.679688 345.109375 164.105469 344.730469 C 161.53125 344.347656 158.96875 343.902344 156.417969 343.394531 C 153.863281 342.886719 151.328125 342.316406 148.800781 341.683594 C 146.277344 341.050781 143.769531 340.359375 141.28125 339.601562 C 138.789062 338.847656 136.320312 338.03125 133.871094 337.15625 C 131.417969 336.277344 128.992188 335.339844 126.585938 334.347656 C 124.183594 333.351562 121.804688 332.296875 119.453125 331.183594 C 117.101562 330.070312 114.777344 328.902344 112.480469 327.675781 C 110.1875 326.449219 107.921875 325.164062 105.691406 323.828125 C 103.457031 322.488281 101.261719 321.097656 99.097656 319.652344 C 96.933594 318.207031 94.804688 316.707031 92.714844 315.15625 C 90.625 313.609375 88.574219 312.007812 86.5625 310.355469 C 84.550781 308.707031 82.582031 307.007812 80.652344 305.257812 C 78.726562 303.511719 76.839844 301.714844 75 299.875 C 73.160156 298.035156 71.367188 296.152344 69.621094 294.222656 C 67.871094 292.296875 66.171875 290.324219 64.519531 288.3125 C 62.871094 286.300781 61.269531 284.25 59.71875 282.160156 C 58.167969 280.070312 56.671875 277.945312 55.226562 275.78125 C 53.78125 273.617188 52.386719 271.417969 51.050781 269.1875 C 49.710938 266.953125 48.429688 264.691406 47.203125 262.394531 C 45.976562 260.101562 44.808594 257.777344 43.695312 255.425781 C 42.582031 253.070312 41.527344 250.695312 40.53125 248.289062 C 39.535156 245.886719 38.597656 243.457031 37.722656 241.007812 C 36.847656 238.558594 36.03125 236.085938 35.273438 233.597656 C 34.519531 231.105469 33.824219 228.601562 33.191406 226.074219 C 32.5625 223.550781 31.992188 221.011719 31.484375 218.460938 C 30.976562 215.90625 30.53125 213.34375 30.148438 210.769531 C 29.765625 208.195312 29.449219 205.613281 29.191406 203.023438 C 28.9375 200.433594 28.746094 197.839844 28.617188 195.242188 C 28.492188 192.640625 28.425781 190.042969 28.425781 187.4375 C 28.425781 184.835938 28.492188 182.234375 28.617188 179.636719 C 28.746094 177.039062 28.9375 174.441406 29.191406 171.851562 C 29.449219 169.261719 29.765625 166.679688 30.148438 164.105469 C 30.53125 161.53125 30.976562 158.96875 31.484375 156.417969 C 31.992188 153.863281 32.5625 151.328125 33.191406 148.800781 C 33.824219 146.277344 34.519531 143.769531 35.273438 141.28125 C 36.03125 138.789062 36.847656 136.320312 37.722656 133.871094 C 38.597656 131.417969 39.535156 128.992188 40.53125 126.585938 C 41.527344 124.183594 42.582031 121.804688 43.695312 119.453125 C 44.808594 117.101562 45.976562 114.777344 47.203125 112.480469 C 48.429688 110.1875 49.710938 107.921875 51.050781 105.691406 C 52.386719 103.457031 53.78125 101.261719 55.226562 99.097656 C 56.671875 96.933594 58.167969 94.804688 59.71875 92.714844 C 61.269531 90.625 62.871094 88.574219 64.519531 86.5625 C 66.171875 84.550781 67.871094 82.582031 69.621094 80.652344 C 71.367188 78.726562 73.160156 76.839844 75 75 C 76.839844 73.160156 78.726562 71.367188 80.652344 69.621094 C 82.582031 67.871094 84.550781 66.171875 86.5625 64.519531 C 88.574219 62.871094 90.625 61.269531 92.714844 59.71875 C 94.804688 58.167969 96.933594 56.671875 99.097656 55.226562 C 101.261719 53.78125 103.457031 52.386719 105.691406 51.050781 C 107.921875 49.710938 110.1875 48.429688 112.480469 47.203125 C 114.777344 45.976562 117.101562 44.808594 119.453125 43.695312 C 121.804688 42.582031 124.183594 41.527344 126.585938 40.53125 C 128.992188 39.535156 131.417969 38.597656 133.871094 37.722656 C 136.320312 36.847656 138.789062 36.03125 141.28125 35.273438 C 143.769531 34.519531 146.277344 33.824219 148.800781 33.191406 C 151.328125 32.5625 153.863281 31.992188 156.417969 31.484375 C 158.96875 30.976562 161.53125 30.53125 164.105469 30.148438 C 166.679688 29.765625 169.261719 29.449219 171.851562 29.191406 C 174.441406 28.9375 177.039062 28.746094 179.636719 28.617188 C 182.234375 28.492188 184.835938 28.425781 187.4375 28.425781 C 190.042969 28.425781 192.640625 28.492188 195.242188 28.617188 C 197.839844 28.746094 200.433594 28.9375 203.023438 29.191406 C 205.613281 29.449219 208.195312 29.765625 210.769531 30.148438 C 213.34375 30.53125 215.90625 30.976562 218.460938 31.484375 C 221.011719 31.992188 223.550781 32.5625 226.074219 33.191406 C 228.601562 33.824219 231.105469 34.519531 233.597656 35.273438 C 236.085938 36.03125 238.558594 36.847656 241.007812 37.722656 C 243.457031 38.597656 245.886719 39.535156 248.289062 40.53125 C 250.695312 41.527344 253.070312 42.582031 255.425781 43.695312 C 257.777344 44.808594 260.101562 45.976562 262.394531 47.203125 C 264.691406 48.429688 266.953125 49.710938 269.1875 51.050781 C 271.417969 52.386719 273.617188 53.78125 275.78125 55.226562 C 277.945312 56.671875 280.070312 58.167969 282.160156 59.71875 C 284.25 61.269531 286.300781 62.871094 288.3125 64.519531 C 290.324219 66.171875 292.296875 67.871094 294.222656 69.621094 C 296.152344 71.367188 298.035156 73.160156 299.875 75 C 301.714844 76.839844 303.511719 78.726562 305.257812 80.652344 C 307.007812 82.582031 308.707031 84.550781 310.355469 86.5625 C 312.007812 88.574219 313.609375 90.625 315.15625 92.714844 C 316.707031 94.804688 318.207031 96.933594 319.652344 99.097656 C 321.097656 101.261719 322.488281 103.457031 323.828125 105.691406 C 325.164062 107.921875 326.449219 110.1875 327.675781 112.480469 C 328.902344 114.777344 330.070312 117.101562 331.183594 119.453125 C 332.296875 121.804688 333.351562 124.183594 334.347656 126.585938 C 335.339844 128.992188 336.277344 131.417969 337.15625 133.871094 C 338.03125 136.320312 338.847656 138.789062 339.601562 141.28125 C 340.359375 143.769531 341.050781 146.277344 341.683594 148.800781 C 342.316406 151.328125 342.886719 153.863281 343.394531 156.417969 C 343.902344 158.96875 344.347656 161.53125 344.730469 164.105469 C 345.109375 166.679688 345.429688 169.261719 345.683594 171.851562 C 345.9375 174.441406 346.128906 177.039062 346.257812 179.636719 C 346.386719 182.234375 346.449219 184.835938 346.449219 187.4375 Z M 346.449219 187.4375 " fill-opacity="1" fill-rule="nonzero"/></g><path fill="rgb(0%, 18.03894%, 20.779419%)" d="M 286.832031 110.261719 C 286.832031 96.667969 242.332031 85.648438 187.4375 85.648438 C 132.546875 85.648438 88.046875 96.667969 88.046875 110.261719 C 88.046875 111.285156 88.304688 112.292969 88.796875 113.285156 C 98.734375 150.957031 134.429688 175.464844 134.429688 175.464844 L 240.449219 175.464844 C 240.449219 175.464844 276.144531 150.953125 286.082031 113.285156 C 286.570312 112.292969 286.832031 111.285156 286.832031 110.261719 Z M 286.832031 110.261719 " fill-opacity="1" fill-rule="nonzero"/><path fill="rgb(59.999084%, 59.999084%, 59.999084%)" d="M 245.230469 195.5625 C 245.230469 197.457031 245.136719 199.34375 244.953125 201.226562 C 244.765625 203.109375 244.488281 204.980469 244.121094 206.835938 C 243.75 208.695312 243.292969 210.527344 242.742188 212.339844 C 242.191406 214.148438 241.554688 215.929688 240.832031 217.679688 C 240.109375 219.425781 239.300781 221.136719 238.40625 222.804688 C 237.515625 224.476562 236.542969 226.097656 235.492188 227.671875 C 234.441406 229.242188 233.3125 230.761719 232.113281 232.226562 C 230.910156 233.6875 229.640625 235.089844 228.304688 236.429688 C 226.964844 237.765625 225.566406 239.035156 224.101562 240.238281 C 222.636719 241.4375 221.121094 242.5625 219.546875 243.613281 C 217.972656 244.667969 216.351562 245.636719 214.683594 246.53125 C 213.011719 247.421875 211.304688 248.230469 209.554688 248.957031 C 207.804688 249.679688 206.027344 250.316406 204.214844 250.867188 C 202.402344 251.414062 200.570312 251.875 198.714844 252.246094 C 196.855469 252.613281 194.988281 252.890625 193.101562 253.078125 C 191.21875 253.261719 189.332031 253.355469 187.4375 253.355469 C 185.546875 253.355469 183.65625 253.261719 181.773438 253.078125 C 179.890625 252.890625 178.019531 252.613281 176.164062 252.246094 C 174.308594 251.875 172.472656 251.414062 170.664062 250.867188 C 168.851562 250.316406 167.070312 249.679688 165.324219 248.957031 C 163.574219 248.230469 161.863281 247.421875 160.195312 246.53125 C 158.527344 245.636719 156.90625 244.667969 155.332031 243.613281 C 153.757812 242.5625 152.238281 241.4375 150.777344 240.238281 C 149.3125 239.035156 147.910156 237.765625 146.574219 236.429688 C 145.234375 235.089844 143.964844 233.6875 142.765625 232.226562 C 141.5625 230.761719 140.4375 229.242188 139.386719 227.671875 C 138.335938 226.097656 137.363281 224.476562 136.46875 222.804688 C 135.578125 221.136719 134.769531 219.425781 134.046875 217.679688 C 133.320312 215.929688 132.683594 214.148438 132.136719 212.339844 C 131.585938 210.527344 131.125 208.695312 130.757812 206.835938 C 130.386719 204.980469 130.109375 203.109375 129.925781 201.226562 C 129.738281 199.34375 129.648438 197.457031 129.648438 195.5625 C 129.648438 193.667969 129.738281 191.78125 129.925781 189.898438 C 130.109375 188.015625 130.386719 186.144531 130.757812 184.289062 C 131.125 182.429688 131.585938 180.597656 132.136719 178.785156 C 132.683594 176.976562 133.320312 175.195312 134.046875 173.445312 C 134.769531 171.699219 135.578125 169.988281 136.46875 168.320312 C 137.363281 166.648438 138.335938 165.027344 139.386719 163.453125 C 140.4375 161.882812 141.5625 160.363281 142.765625 158.898438 C 143.964844 157.4375 145.234375 156.035156 146.574219 154.699219 C 147.910156 153.359375 149.3125 152.089844 150.777344 150.886719 C 152.238281 149.6875 153.757812 148.5625 155.332031 147.511719 C 156.90625 146.457031 158.527344 145.488281 160.195312 144.59375 C 161.863281 143.703125 163.574219 142.894531 165.324219 142.167969 C 167.070312 141.445312 168.851562 140.808594 170.664062 140.257812 C 172.472656 139.710938 174.308594 139.25 176.164062 138.882812 C 178.019531 138.511719 179.890625 138.234375 181.773438 138.046875 C 183.65625 137.863281 185.546875 137.769531 187.4375 137.769531 C 189.332031 137.769531 191.21875 137.863281 193.101562 138.046875 C 194.988281 138.234375 196.855469 138.511719 198.714844 138.882812 C 200.570312 139.25 202.402344 139.710938 204.214844 140.257812 C 206.027344 140.808594 207.804688 141.445312 209.554688 142.167969 C 211.304688 142.894531 213.011719 143.703125 214.683594 144.59375 C 216.351562 145.488281 217.972656 146.457031 219.546875 147.511719 C 221.121094 148.5625 222.636719 149.6875 224.101562 150.886719 C 225.566406 152.089844 226.964844 153.359375 228.304688 154.699219 C 229.640625 156.035156 230.910156 157.4375 232.113281 158.898438 C 233.3125 160.363281 234.441406 161.882812 235.492188 163.453125 C 236.542969 165.027344 237.515625 166.648438 238.40625 168.320312 C 239.300781 169.988281 240.109375 171.699219 240.832031 173.445312 C 241.554688 175.195312 242.191406 176.976562 242.742188 178.785156 C 243.292969 180.597656 243.75 182.429688 244.121094 184.289062 C 244.488281 186.144531 244.765625 188.015625 244.953125 189.898438 C 245.136719 191.78125 245.230469 193.667969 245.230469 195.5625 Z M 245.230469 195.5625 " fill-opacity="1" fill-rule="nonzero"/><path fill="rgb(0%, 18.03894%, 20.779419%)" d="M 220.351562 208.625 C 220.351562 209.757812 220.296875 210.886719 220.1875 212.011719 C 220.074219 213.136719 219.910156 214.253906 219.6875 215.367188 C 219.46875 216.476562 219.195312 217.574219 218.863281 218.65625 C 218.535156 219.738281 218.15625 220.800781 217.722656 221.847656 C 217.289062 222.894531 216.804688 223.914062 216.273438 224.914062 C 215.738281 225.910156 215.160156 226.882812 214.53125 227.824219 C 213.902344 228.761719 213.226562 229.671875 212.507812 230.546875 C 211.792969 231.421875 211.03125 232.257812 210.230469 233.058594 C 209.433594 233.859375 208.59375 234.617188 207.71875 235.335938 C 206.84375 236.054688 205.9375 236.726562 204.996094 237.355469 C 204.054688 237.984375 203.085938 238.566406 202.085938 239.101562 C 201.089844 239.632812 200.066406 240.117188 199.019531 240.550781 C 197.976562 240.984375 196.910156 241.363281 195.828125 241.691406 C 194.746094 242.019531 193.648438 242.296875 192.539062 242.515625 C 191.429688 242.738281 190.308594 242.902344 189.183594 243.015625 C 188.058594 243.125 186.929688 243.179688 185.796875 243.179688 C 184.664062 243.179688 183.535156 243.125 182.410156 243.015625 C 181.285156 242.902344 180.164062 242.738281 179.054688 242.515625 C 177.945312 242.296875 176.847656 242.019531 175.765625 241.691406 C 174.683594 241.363281 173.617188 240.984375 172.574219 240.550781 C 171.527344 240.117188 170.503906 239.632812 169.507812 239.101562 C 168.507812 238.566406 167.539062 237.984375 166.597656 237.355469 C 165.65625 236.726562 164.75 236.054688 163.875 235.335938 C 163 234.617188 162.164062 233.859375 161.363281 233.058594 C 160.5625 232.257812 159.800781 231.421875 159.085938 230.546875 C 158.367188 229.671875 157.695312 228.761719 157.066406 227.824219 C 156.4375 226.882812 155.855469 225.910156 155.320312 224.914062 C 154.789062 223.914062 154.304688 222.894531 153.871094 221.847656 C 153.4375 220.800781 153.058594 219.738281 152.730469 218.65625 C 152.398438 217.574219 152.125 216.476562 151.90625 215.367188 C 151.683594 214.253906 151.519531 213.136719 151.40625 212.011719 C 151.296875 210.886719 151.242188 209.757812 151.242188 208.625 C 151.242188 207.492188 151.296875 206.363281 151.40625 205.238281 C 151.519531 204.109375 151.683594 202.992188 151.90625 201.882812 C 152.125 200.773438 152.398438 199.675781 152.730469 198.59375 C 153.058594 197.511719 153.4375 196.445312 153.871094 195.398438 C 154.304688 194.355469 154.789062 193.332031 155.320312 192.335938 C 155.855469 191.335938 156.4375 190.367188 157.066406 189.425781 C 157.695312 188.484375 158.367188 187.578125 159.085938 186.703125 C 159.800781 185.828125 160.5625 184.988281 161.363281 184.1875 C 162.164062 183.390625 163 182.628906 163.875 181.910156 C 164.75 181.195312 165.65625 180.519531 166.597656 179.890625 C 167.539062 179.261719 168.507812 178.683594 169.507812 178.148438 C 170.503906 177.613281 171.527344 177.132812 172.574219 176.699219 C 173.617188 176.265625 174.683594 175.882812 175.765625 175.554688 C 176.847656 175.226562 177.945312 174.953125 179.054688 174.730469 C 180.164062 174.511719 181.285156 174.34375 182.410156 174.234375 C 183.535156 174.125 184.664062 174.066406 185.796875 174.066406 C 186.929688 174.066406 188.058594 174.125 189.183594 174.234375 C 190.308594 174.34375 191.429688 174.511719 192.539062 174.730469 C 193.648438 174.953125 194.746094 175.226562 195.828125 175.554688 C 196.910156 175.882812 197.976562 176.265625 199.019531 176.699219 C 200.066406 177.132812 201.089844 177.613281 202.085938 178.148438 C 203.085938 178.683594 204.054688 179.261719 204.996094 179.890625 C 205.9375 180.519531 206.84375 181.195312 207.71875 181.910156 C 208.59375 182.628906 209.433594 183.390625 210.230469 184.1875 C 211.03125 184.988281 211.792969 185.828125 212.507812 186.703125 C 213.226562 187.578125 213.902344 188.484375 214.53125 189.425781 C 215.160156 190.367188 215.738281 191.335938 216.273438 192.335938 C 216.804688 193.332031 217.289062 194.355469 217.722656 195.398438 C 218.15625 196.445312 218.535156 197.511719 218.863281 198.59375 C 219.195312 199.675781 219.46875 200.773438 219.6875 201.882812 C 219.910156 202.992188 220.074219 204.109375 220.1875 205.238281 C 220.296875 206.363281 220.351562 207.492188 220.351562 208.625 Z M 220.351562 208.625 " fill-opacity="1" fill-rule="nonzero"/><path fill="rgb(100%, 100%, 100%)" d="M 201.007812 221.097656 C 201.007812 222.097656 200.910156 223.085938 200.714844 224.066406 C 200.519531 225.046875 200.230469 225.996094 199.847656 226.917969 C 199.464844 227.839844 198.996094 228.71875 198.441406 229.546875 C 197.886719 230.378906 197.257812 231.148438 196.550781 231.851562 C 195.84375 232.558594 195.078125 233.191406 194.246094 233.746094 C 193.417969 234.300781 192.539062 234.769531 191.617188 235.148438 C 190.695312 235.53125 189.742188 235.820312 188.765625 236.015625 C 187.785156 236.210938 186.796875 236.308594 185.796875 236.308594 C 184.796875 236.308594 183.808594 236.210938 182.828125 236.015625 C 181.851562 235.820312 180.898438 235.53125 179.976562 235.148438 C 179.054688 234.769531 178.175781 234.300781 177.347656 233.746094 C 176.515625 233.191406 175.75 232.558594 175.042969 231.851562 C 174.335938 231.148438 173.707031 230.378906 173.152344 229.546875 C 172.597656 228.71875 172.128906 227.839844 171.746094 226.917969 C 171.363281 225.996094 171.074219 225.046875 170.878906 224.066406 C 170.683594 223.085938 170.585938 222.097656 170.585938 221.097656 C 170.585938 220.101562 170.683594 219.109375 170.878906 218.132812 C 171.074219 217.152344 171.363281 216.199219 171.746094 215.277344 C 172.128906 214.355469 172.597656 213.480469 173.152344 212.648438 C 173.707031 211.816406 174.335938 211.050781 175.042969 210.34375 C 175.75 209.636719 176.515625 209.007812 177.347656 208.453125 C 178.175781 207.898438 179.054688 207.429688 179.976562 207.046875 C 180.898438 206.664062 181.851562 206.375 182.828125 206.179688 C 183.808594 205.988281 184.796875 205.890625 185.796875 205.890625 C 186.796875 205.890625 187.785156 205.988281 188.765625 206.179688 C 189.742188 206.375 190.695312 206.664062 191.617188 207.046875 C 192.539062 207.429688 193.417969 207.898438 194.246094 208.453125 C 195.078125 209.007812 195.84375 209.636719 196.550781 210.34375 C 197.257812 211.050781 197.886719 211.816406 198.441406 212.648438 C 198.996094 213.480469 199.464844 214.355469 199.847656 215.277344 C 200.230469 216.199219 200.519531 217.152344 200.714844 218.132812 C 200.910156 219.109375 201.007812 220.101562 201.007812 221.097656 Z M 201.007812 221.097656 " fill-opacity="1" fill-rule="nonzero"/><path fill="rgb(0%, 18.03894%, 20.779419%)" d="M 133.207031 175.464844 C 133.207031 175.464844 185.460938 142.953125 241.671875 175.464844 L 241.671875 140.160156 L 166.003906 132.5 C 166.003906 132.5 135.390625 138.335938 135.015625 139.792969 C 134.636719 141.253906 133.207031 175.464844 133.207031 175.464844 Z M 133.207031 175.464844 " fill-opacity="1" fill-rule="nonzero"/><path fill="rgb(59.999084%, 59.999084%, 59.999084%)" d="M 138.949219 138.570312 C 139.222656 139.253906 139.453125 139.941406 139.644531 140.640625 C 139.835938 141.339844 139.980469 142.03125 140.085938 142.722656 C 140.1875 143.410156 140.242188 144.078125 140.253906 144.730469 C 140.265625 145.382812 140.230469 146.003906 140.148438 146.597656 C 140.066406 147.1875 139.941406 147.734375 139.773438 148.242188 C 139.601562 148.746094 139.390625 149.203125 139.136719 149.605469 C 138.882812 150.007812 138.59375 150.351562 138.265625 150.636719 C 137.941406 150.917969 137.585938 151.140625 137.199219 151.292969 C 136.8125 151.445312 136.402344 151.53125 135.972656 151.550781 C 135.539062 151.570312 135.09375 151.519531 134.632812 151.398438 C 134.171875 151.28125 133.703125 151.097656 133.234375 150.847656 C 132.761719 150.597656 132.292969 150.285156 131.828125 149.910156 C 131.363281 149.539062 130.910156 149.113281 130.46875 148.628906 C 130.027344 148.148438 129.609375 147.625 129.210938 147.054688 C 128.8125 146.484375 128.441406 145.878906 128.097656 145.238281 C 127.757812 144.601562 127.453125 143.941406 127.179688 143.261719 C 126.910156 142.578125 126.675781 141.890625 126.488281 141.191406 C 126.296875 140.492188 126.148438 139.800781 126.046875 139.113281 C 125.941406 138.421875 125.886719 137.753906 125.875 137.101562 C 125.863281 136.449219 125.898438 135.828125 125.980469 135.238281 C 126.0625 134.648438 126.1875 134.097656 126.359375 133.589844 C 126.527344 133.085938 126.742188 132.628906 126.992188 132.226562 C 127.246094 131.824219 127.535156 131.480469 127.863281 131.195312 C 128.1875 130.914062 128.546875 130.695312 128.929688 130.539062 C 129.316406 130.386719 129.726562 130.300781 130.160156 130.28125 C 130.589844 130.265625 131.039062 130.3125 131.5 130.433594 C 131.960938 130.550781 132.425781 130.734375 132.898438 130.988281 C 133.371094 131.238281 133.839844 131.546875 134.304688 131.921875 C 134.769531 132.292969 135.222656 132.722656 135.660156 133.203125 C 136.101562 133.683594 136.523438 134.210938 136.921875 134.78125 C 137.320312 135.351562 137.6875 135.953125 138.03125 136.59375 C 138.371094 137.230469 138.679688 137.890625 138.949219 138.570312 Z M 138.949219 138.570312 " fill-opacity="1" fill-rule="nonzero"/><path fill="rgb(19.60907%, 19.60907%, 19.60907%)" d="M 185.125 317.660156 C 183.011719 317.660156 181.296875 315.945312 181.296875 313.832031 L 181.296875 270.371094 C 181.296875 268.257812 183.011719 266.542969 185.125 266.542969 C 187.242188 266.542969 188.953125 268.257812 188.953125 270.371094 L 188.953125 313.832031 C 188.953125 315.945312 187.242188 317.660156 185.125 317.660156 Z M 185.125 317.660156 " fill-opacity="1" fill-rule="nonzero"/><path fill="rgb(19.60907%, 19.60907%, 19.60907%)" d="M 104.996094 286.300781 C 104.011719 286.300781 103.035156 285.925781 102.285156 285.179688 C 100.792969 283.683594 100.792969 281.257812 102.285156 279.761719 L 133.015625 249.035156 C 134.511719 247.539062 136.933594 247.539062 138.429688 249.035156 C 139.925781 250.53125 139.925781 252.953125 138.429688 254.449219 L 107.703125 285.179688 C 106.953125 285.925781 105.972656 286.300781 104.996094 286.300781 Z M 104.996094 286.300781 " fill-opacity="1" fill-rule="nonzero"/><path fill="rgb(19.60907%, 19.60907%, 19.60907%)" d="M 269.882812 280.5625 C 268.902344 280.5625 267.925781 280.191406 267.175781 279.441406 L 236.445312 248.714844 C 234.953125 247.21875 234.953125 244.792969 236.445312 243.296875 C 237.941406 241.804688 240.363281 241.804688 241.863281 243.296875 L 272.589844 274.027344 C 274.085938 275.523438 274.085938 277.945312 272.589844 279.441406 C 271.84375 280.191406 270.863281 280.5625 269.882812 280.5625 Z M 269.882812 280.5625 " fill-opacity="1" fill-rule="nonzero"/></svg>