<svg xmlns="http://www.w3.org/2000/svg" width="375" viewBox="0 0 375 375" height="375" version="1.0"><path fill="#8CC84B" d="M 171.960938 8.679688 C 181.105469 3.492188 192.769531 3.472656 201.6875 8.679688 L 338.253906 85.761719 C 346.796875 90.570312 352.511719 100.109375 352.433594 109.964844 L 352.433594 264.523438 C 352.492188 274.792969 346.214844 284.535156 337.203125 289.25 L 201.367188 365.980469 C 200.210938 366.621094 199.015625 367.179688 197.785156 367.660156 C 196.554688 368.140625 195.296875 368.535156 194.015625 368.851562 C 192.730469 369.164062 191.433594 369.386719 190.117188 369.527344 C 188.804688 369.667969 187.488281 369.71875 186.167969 369.679688 C 184.847656 369.644531 183.535156 369.519531 182.230469 369.308594 C 180.925781 369.097656 179.640625 368.800781 178.375 368.417969 C 177.113281 368.035156 175.878906 367.566406 174.675781 367.019531 C 173.472656 366.472656 172.3125 365.847656 171.191406 365.144531 L 130.429688 341.558594 C 127.652344 339.898438 124.53125 338.582031 122.5625 335.894531 C 124.300781 333.558594 127.390625 333.257812 129.90625 332.230469 C 135.574219 330.421875 140.765625 327.648438 145.980469 324.71875 C 147.296875 323.804688 148.90625 324.144531 150.164062 324.96875 L 184.925781 345.097656 C 187.40625 346.527344 189.921875 344.640625 192.046875 343.4375 L 325.425781 268.070312 C 327.074219 267.269531 327.988281 265.53125 327.851562 263.71875 L 327.851562 110.652344 C 328.035156 108.59375 326.855469 106.714844 324.992188 105.878906 L 189.5 29.480469 C 189.109375 29.210938 188.6875 29.003906 188.234375 28.863281 C 187.78125 28.722656 187.316406 28.648438 186.84375 28.648438 C 186.367188 28.648438 185.902344 28.71875 185.449219 28.859375 C 184.996094 28.996094 184.574219 29.203125 184.183594 29.472656 L 48.882812 106.027344 C 47.054688 106.863281 45.796875 108.71875 46.023438 110.777344 L 46.023438 263.847656 C 45.863281 265.65625 46.824219 267.359375 48.484375 268.140625 L 84.636719 288.574219 C 91.429688 292.238281 99.765625 294.300781 107.242188 291.609375 C 108.054688 291.300781 108.839844 290.9375 109.597656 290.507812 C 110.355469 290.082031 111.078125 289.601562 111.761719 289.066406 C 112.445312 288.527344 113.085938 287.945312 113.683594 287.308594 C 114.277344 286.675781 114.824219 286 115.316406 285.285156 C 115.808594 284.566406 116.246094 283.816406 116.625 283.035156 C 117.003906 282.253906 117.324219 281.445312 117.578125 280.613281 C 117.835938 279.78125 118.027344 278.9375 118.15625 278.074219 C 118.285156 277.214844 118.347656 276.347656 118.34375 275.476562 L 118.378906 123.328125 C 118.21875 121.070312 120.347656 119.203125 122.53125 119.433594 L 139.910156 119.433594 C 142.195312 119.375 143.992188 121.804688 143.683594 124.070312 L 143.648438 277.183594 C 143.660156 290.785156 138.082031 305.578125 125.515625 312.25 C 110.03125 320.265625 90.890625 318.582031 75.59375 310.878906 L 36.71875 289.355469 C 27.570312 284.773438 21.429688 274.882812 21.488281 264.625 L 21.488281 110.070312 C 21.496094 108.820312 21.589844 107.574219 21.765625 106.335938 C 21.9375 105.097656 22.195312 103.878906 22.53125 102.675781 C 22.871094 101.46875 23.285156 100.292969 23.777344 99.144531 C 24.273438 97.996094 24.839844 96.886719 25.480469 95.8125 C 26.125 94.742188 26.832031 93.714844 27.609375 92.738281 C 28.390625 91.761719 29.226562 90.835938 30.128906 89.972656 C 31.03125 89.105469 31.984375 88.304688 32.992188 87.5625 C 33.996094 86.824219 35.050781 86.15625 36.144531 85.558594 Z M 211.335938 115.816406 C 231.085938 114.671875 252.226562 115.0625 269.996094 124.804688 C 283.75 132.269531 291.375 147.929688 291.628906 163.246094 C 291.238281 165.308594 289.089844 166.453125 287.121094 166.304688 C 281.40625 166.292969 275.664062 166.382812 269.925781 166.269531 C 267.492188 166.363281 266.082031 164.117188 265.773438 161.964844 C 264.128906 154.636719 260.136719 147.390625 253.253906 143.855469 C 242.691406 138.554688 230.433594 138.816406 218.90625 138.929688 C 210.492188 139.390625 201.449219 140.109375 194.324219 145.054688 C 188.835938 148.8125 187.1875 156.503906 189.144531 162.480469 C 190.972656 166.867188 196.039062 168.273438 200.167969 169.578125 C 223.972656 175.808594 249.183594 175.304688 272.542969 183.398438 C 282.207031 186.742188 291.660156 193.242188 294.976562 203.375 C 299.300781 216.953125 297.414062 233.1875 287.773438 244.085938 C 279.953125 253.0625 268.566406 257.824219 257.1875 260.59375 C 242.0625 263.972656 226.375 264.050781 211.019531 262.542969 C 196.578125 260.894531 181.550781 257.09375 170.402344 247.246094 C 160.867188 238.957031 156.226562 226.042969 156.683594 213.585938 C 156.796875 211.480469 158.890625 210.015625 160.914062 210.1875 L 178.066406 210.1875 C 180.375 210.027344 182.066406 212.019531 182.179688 214.195312 C 183.246094 221.0625 185.863281 228.503906 191.945312 232.511719 C 203.675781 240.089844 218.394531 239.5625 231.816406 239.78125 C 242.941406 239.289062 255.425781 239.140625 264.515625 231.765625 C 269.320312 227.566406 270.726562 220.546875 269.433594 214.503906 C 268.027344 209.398438 262.574219 207.027344 258 205.34375 C 234.503906 197.902344 209.003906 200.605469 185.738281 192.179688 C 176.292969 188.835938 167.15625 182.515625 163.53125 172.796875 C 158.46875 159.058594 160.789062 142.035156 171.457031 131.5 C 181.746094 121.023438 196.839844 116.984375 211.132812 115.542969 Z M 211.335938 115.816406"/></svg>