<svg xmlns="http://www.w3.org/2000/svg" width="375" viewBox="0 0 375 375" height="375" version="1.0"><defs><clipPath id="a"><path d="M 17 24 L 354 24 L 354 371.289062 L 17 371.289062 Z M 17 24"/></clipPath></defs><g clip-path="url(#a)"><path d="M 352.917969 232.460938 C 350.890625 226.34375 345.601562 222.078125 338.761719 221.054688 C 335.535156 220.578125 331.839844 220.777344 327.472656 221.683594 C 319.855469 223.25 314.195312 223.855469 310.066406 223.972656 C 325.644531 197.671875 338.3125 167.683594 345.601562 139.457031 C 357.390625 93.8125 351.089844 73.019531 343.71875 63.613281 C 324.25 38.722656 295.816406 25.347656 261.53125 24.9375 C 243.242188 24.714844 227.179688 28.324219 218.808594 30.921875 C 211.007812 29.546875 202.613281 28.777344 193.824219 28.636719 C 177.328125 28.371094 162.75 31.96875 150.304688 39.359375 C 143.40625 37.027344 132.339844 33.742188 119.5625 31.644531 C 89.511719 26.710938 65.289062 30.554688 47.574219 43.070312 C 26.117188 58.226562 16.171875 84.558594 18.011719 121.335938 C 18.597656 133.011719 25.128906 168.539062 35.410156 202.222656 C 41.320312 221.59375 47.625 237.671875 54.144531 250.027344 C 63.386719 267.554688 73.28125 277.867188 84.386719 281.578125 C 90.609375 283.644531 101.921875 285.105469 113.816406 275.199219 C 115.324219 277.011719 117.335938 278.828125 120.003906 280.511719 C 123.394531 282.65625 127.539062 284.40625 131.679688 285.433594 C 146.601562 289.171875 160.578125 288.238281 172.5 283.011719 C 172.578125 285.132812 172.628906 287.15625 172.683594 288.90625 C 172.761719 291.75 172.839844 294.527344 172.945312 297.132812 C 173.644531 314.722656 174.839844 328.40625 178.394531 337.988281 C 178.589844 338.511719 178.851562 339.316406 179.128906 340.15625 C 180.890625 345.578125 183.851562 354.65625 191.378906 361.761719 C 199.179688 369.117188 208.613281 371.367188 217.246094 371.367188 C 221.574219 371.367188 225.703125 370.804688 229.335938 370.027344 C 242.253906 367.261719 256.925781 363.039062 267.542969 347.921875 C 277.582031 333.632812 282.449219 312.117188 283.332031 278.199219 C 283.449219 277.238281 283.554688 276.328125 283.660156 275.449219 C 283.726562 274.867188 283.792969 274.261719 283.871094 273.65625 L 286.238281 273.867188 L 286.84375 273.90625 C 300 274.511719 316.089844 271.722656 325.972656 267.132812 C 333.789062 263.5 358.8125 250.289062 352.917969 232.460938"/></g><path fill="#336791" d="M 330.417969 235.921875 C 291.289062 244 288.59375 230.75 288.59375 230.75 C 329.90625 169.433594 347.179688 91.617188 332.273438 72.578125 C 291.621094 20.621094 221.230469 45.191406 220.058594 45.828125 L 219.679688 45.898438 C 211.957031 44.292969 203.296875 43.335938 193.574219 43.179688 C 175.867188 42.886719 162.445312 47.820312 152.25 55.550781 C 152.25 55.550781 26.695312 3.820312 32.535156 120.605469 C 33.777344 145.453125 68.144531 308.59375 109.132812 259.316406 C 124.113281 241.304688 138.589844 226.066406 138.589844 226.066406 C 145.777344 230.84375 154.382812 233.277344 163.40625 232.410156 L 164.105469 231.804688 C 163.894531 234.042969 163.984375 236.238281 164.394531 238.832031 C 153.828125 250.621094 156.933594 252.699219 135.824219 257.042969 C 114.464844 261.449219 127.011719 269.277344 135.207031 271.332031 C 145.136719 273.816406 168.117188 277.332031 183.640625 255.59375 L 183.023438 258.082031 C 187.15625 261.394531 190.0625 279.632812 189.574219 296.171875 C 189.089844 312.710938 188.761719 324.066406 192.023438 332.9375 C 195.285156 341.804688 198.535156 361.75 226.285156 355.804688 C 249.464844 350.84375 261.492188 337.960938 263.160156 316.476562 C 264.347656 301.210938 267.03125 303.460938 267.199219 289.816406 L 269.34375 283.34375 C 271.832031 262.644531 269.738281 255.960938 284.027344 259.066406 L 287.5 259.382812 C 298.015625 259.855469 311.777344 257.6875 319.855469 253.9375 C 337.246094 245.855469 347.5625 232.382812 330.40625 235.921875 L 330.417969 235.921875"/><path fill="#FFF" d="M 159.605469 131.71875 C 156.078125 131.226562 152.882812 131.679688 151.261719 132.902344 C 150.355469 133.59375 150.078125 134.390625 150 134.9375 C 149.804688 136.390625 150.816406 138 151.433594 138.828125 C 153.210938 141.175781 155.800781 142.789062 158.355469 143.144531 C 158.738281 143.195312 159.105469 143.222656 159.460938 143.222656 C 163.734375 143.222656 167.617188 139.894531 167.960938 137.441406 C 168.394531 134.367188 163.921875 132.320312 159.605469 131.71875"/><path fill="#FFF" d="M 276.410156 131.816406 C 276.070312 129.40625 271.792969 128.71875 267.714844 129.285156 C 263.660156 129.851562 259.714844 131.683594 260.042969 134.097656 C 260.304688 135.976562 263.699219 139.183594 267.714844 139.183594 C 268.054688 139.183594 268.398438 139.160156 268.738281 139.109375 C 271.410156 138.738281 273.382812 137.039062 274.320312 136.058594 C 275.738281 134.5625 276.554688 132.898438 276.410156 131.816406"/><path fill="#FFF" d="M 343.429688 235.011719 C 341.945312 230.5 337.140625 229.039062 329.15625 230.699219 C 305.472656 235.578125 296.988281 232.199219 294.199219 230.144531 C 312.617188 202.09375 327.761719 168.183594 335.933594 136.542969 C 339.8125 121.554688 341.945312 107.636719 342.117188 96.292969 C 342.3125 83.839844 340.195312 74.691406 335.8125 69.101562 C 318.183594 46.566406 292.304688 34.480469 260.976562 34.148438 C 239.441406 33.90625 221.246094 39.417969 217.71875 40.96875 C 210.296875 39.121094 202.191406 37.988281 193.378906 37.84375 C 177.207031 37.582031 163.234375 41.453125 151.671875 49.339844 C 146.640625 47.472656 133.652344 43.011719 117.769531 40.453125 C 90.308594 36.03125 68.484375 39.382812 52.914062 50.414062 C 34.332031 63.582031 25.753906 87.113281 27.414062 120.359375 C 27.972656 131.546875 34.347656 165.960938 44.402344 198.90625 C 57.640625 242.289062 72.03125 266.84375 87.175781 271.894531 C 88.945312 272.488281 90.992188 272.894531 93.242188 272.894531 C 98.765625 272.894531 105.539062 270.40625 112.582031 261.933594 C 124.285156 247.855469 135.214844 236.054688 139.242188 231.761719 C 145.191406 234.960938 151.738281 236.75 158.421875 236.921875 C 158.433594 237.105469 158.445312 237.277344 158.460938 237.449219 C 157.117188 239.039062 156.027344 240.433594 155.078125 241.632812 C 150.449219 247.511719 149.488281 248.738281 134.570312 251.804688 C 130.328125 252.683594 119.058594 255 118.890625 262.90625 C 118.714844 271.539062 132.214844 275.15625 133.75 275.539062 C 139.113281 276.882812 144.277344 277.554688 149.199219 277.554688 C 161.183594 277.554688 171.722656 273.617188 180.140625 266 C 179.878906 296.761719 181.167969 327.09375 184.851562 336.328125 C 187.878906 343.894531 195.273438 362.367188 218.625 362.367188 C 222.046875 362.367188 225.824219 361.972656 229.96875 361.078125 C 254.332031 355.855469 264.910156 345.09375 269.015625 321.34375 C 271.199219 308.65625 274.964844 278.34375 276.726562 262.09375 C 280.460938 263.25 285.265625 263.789062 290.460938 263.789062 C 301.289062 263.789062 313.789062 261.488281 321.617188 257.84375 C 330.433594 253.761719 346.3125 243.722656 343.429688 235.011719 Z M 285.410156 125.164062 C 285.316406 129.964844 284.660156 134.320312 283.960938 138.867188 C 283.210938 143.757812 282.4375 148.816406 282.238281 154.953125 C 282.042969 160.921875 282.792969 167.132812 283.515625 173.144531 C 284.960938 185.277344 286.460938 197.761719 280.671875 210.09375 C 279.765625 208.488281 278.898438 206.75 278.109375 204.816406 C 277.382812 203.066406 275.820312 200.261719 273.660156 196.382812 C 265.242188 181.289062 245.53125 145.925781 255.621094 131.496094 C 258.621094 127.203125 266.253906 122.785156 285.410156 125.164062 Z M 262.1875 43.867188 C 290.265625 44.484375 312.460938 54.988281 328.183594 75.078125 C 340.234375 90.484375 326.957031 160.605469 288.527344 221.089844 C 288.144531 220.601562 287.765625 220.117188 287.355469 219.617188 C 287.199219 219.417969 287.042969 219.207031 286.871094 219.011719 C 296.804688 202.601562 294.871094 186.378906 293.132812 171.984375 C 292.421875 166.078125 291.75 160.496094 291.921875 155.261719 C 292.105469 149.707031 292.84375 144.945312 293.539062 140.339844 C 294.421875 134.667969 295.304688 128.792969 295.066406 121.871094 C 295.25 121.144531 295.316406 120.285156 295.226562 119.269531 C 294.59375 112.628906 287.015625 92.761719 271.570312 74.78125 C 263.121094 64.945312 250.808594 53.941406 233.980469 46.515625 C 241.214844 45.015625 251.109375 43.617188 262.1875 43.863281 Z M 105.121094 255.734375 C 97.359375 265.0625 92 263.273438 90.238281 262.695312 C 78.75 258.851562 65.421875 234.578125 53.671875 196.078125 C 43.503906 162.761719 37.5625 129.265625 37.09375 119.875 C 35.609375 90.167969 42.808594 69.460938 58.496094 58.335938 C 84.027344 40.230469 126 51.066406 142.863281 56.5625 C 142.621094 56.804688 142.371094 57.027344 142.128906 57.269531 C 114.453125 85.222656 115.109375 132.980469 115.179688 135.898438 C 115.175781 137.027344 115.269531 138.621094 115.398438 140.816406 C 115.875 148.847656 116.761719 163.800781 114.394531 180.734375 C 112.195312 196.457031 117.042969 211.867188 127.695312 222.972656 C 128.800781 224.128906 129.949219 225.207031 131.140625 226.222656 C 126.398438 231.300781 116.09375 242.535156 105.121094 255.734375 Z M 134.699219 216.261719 C 126.113281 207.3125 122.210938 194.839844 123.996094 182.078125 C 126.496094 164.183594 125.574219 148.609375 125.078125 140.242188 C 125.007812 139.070312 124.949219 138.042969 124.910156 137.234375 C 128.953125 133.648438 147.691406 123.609375 161.046875 126.671875 C 167.152344 128.066406 170.863281 132.21875 172.414062 139.363281 C 180.402344 176.339844 173.464844 191.746094 167.902344 204.140625 C 166.742188 206.683594 165.664062 209.101562 164.730469 211.589844 L 164.019531 213.523438 C 162.191406 218.40625 160.507812 222.933594 159.453125 227.234375 C 150.324219 227.207031 141.449219 223.3125 134.699219 216.261719 Z M 136.097656 266.140625 C 133.433594 265.472656 131.035156 264.3125 129.628906 263.351562 C 130.804688 262.800781 132.894531 262.050781 136.519531 261.300781 C 154.074219 257.695312 156.785156 255.140625 162.691406 247.628906 C 164.058594 245.90625 165.585938 243.945312 167.71875 241.578125 L 167.71875 241.5625 C 170.902344 238.011719 172.347656 238.617188 174.980469 239.707031 C 177.109375 240.589844 179.191406 243.261719 180.03125 246.207031 C 180.425781 247.589844 180.875 250.234375 179.414062 252.289062 C 167.046875 269.589844 149.035156 269.378906 136.097656 266.140625 Z M 227.9375 351.601562 C 206.464844 356.195312 198.859375 345.246094 193.859375 332.722656 C 190.625 324.640625 189.03125 288.183594 190.164062 247.917969 C 190.175781 247.390625 190.097656 246.867188 189.953125 246.378906 C 189.820312 245.445312 189.625 244.496094 189.347656 243.535156 C 187.675781 237.683594 183.597656 232.785156 178.691406 230.746094 C 176.742188 229.945312 173.164062 228.457031 168.875 229.5625 C 169.796875 225.789062 171.375 221.523438 173.097656 216.917969 L 173.820312 214.972656 C 174.636719 212.789062 175.652344 210.511719 176.742188 208.117188 C 182.570312 195.15625 190.558594 177.40625 181.886719 137.3125 C 178.636719 122.296875 167.796875 114.960938 151.363281 116.664062 C 141.503906 117.683594 132.488281 121.660156 127.992188 123.941406 C 127.023438 124.429688 126.140625 124.902344 125.3125 125.363281 C 126.566406 110.234375 131.308594 81.953125 149.046875 64.0625 C 160.21875 52.800781 175.085938 47.234375 193.214844 47.535156 C 228.921875 48.121094 251.816406 66.445312 264.734375 81.71875 C 275.878906 94.878906 281.90625 108.132812 284.3125 115.28125 C 266.222656 113.445312 253.90625 117.015625 247.671875 125.9375 C 234.09375 145.34375 255.089844 183.011719 265.183594 201.101562 C 267.039062 204.417969 268.628906 207.285156 269.144531 208.511719 C 272.417969 216.472656 276.679688 221.785156 279.785156 225.683594 C 280.734375 226.867188 281.667969 228.023438 282.367188 229.023438 C 276.878906 230.601562 267.039062 234.261719 267.933594 252.511719 C 267.207031 261.667969 262.0625 304.539062 259.445312 319.695312 C 256 339.707031 248.632812 347.15625 227.9375 351.601562 Z M 317.535156 249.050781 C 311.929688 251.65625 302.546875 253.601562 293.640625 254.023438 C 283.800781 254.484375 278.785156 252.917969 277.617188 251.957031 C 277.0625 240.589844 281.285156 239.390625 285.773438 238.140625 C 286.46875 237.945312 287.167969 237.746094 287.824219 237.523438 C 288.234375 237.851562 288.695312 238.183594 289.179688 238.511719 C 297.085938 243.734375 311.203125 244.300781 331.109375 240.183594 C 331.191406 240.167969 331.269531 240.15625 331.335938 240.140625 C 328.652344 242.65625 324.058594 246.023438 317.535156 249.050781 Z M 317.535156 249.050781"/></svg>