<svg xmlns="http://www.w3.org/2000/svg" xmlns:xlink="http://www.w3.org/1999/xlink" width="375" viewBox="0 0 375 375" height="375" version="1.0"><defs><clipPath id="a"><path d="M 2 5 L 277 5 L 277 274 L 2 274 Z M 2 5"/></clipPath><clipPath id="b"><path d="M 98.140625 54.007812 C 98.140625 29.082031 104.976562 15.523438 142.722656 9.066406 C 168.351562 4.675781 201.207031 4.125 231.859375 9.066406 C 256.066406 12.972656 276.441406 30.601562 276.441406 54.007812 L 276.441406 136.246094 C 276.441406 160.367188 256.660156 180.125 231.859375 180.125 L 142.722656 180.125 C 112.472656 180.125 86.976562 205.34375 86.976562 233.851562 L 86.976562 273.308594 L 56.328125 273.308594 C 30.402344 273.308594 15.308594 255.03125 8.96875 229.460938 C 0.414062 195.105469 0.777344 174.636719 8.96875 141.734375 C 16.070312 113.03125 38.757812 97.886719 64.683594 97.886719 L 187.304688 97.886719 L 187.304688 86.90625 L 98.136719 86.90625 L 98.136719 54.007812 Z M 98.140625 54.007812"/></clipPath><clipPath id="d"><path d="M 98 97 L 373 97 L 373 368 L 98 368 Z M 98 97"/></clipPath><clipPath id="e"><path d="M 276.441406 317.183594 C 276.441406 342.109375 254.3125 354.734375 231.855469 361.03125 C 198.070312 370.523438 170.957031 369.070312 142.722656 361.03125 C 119.140625 354.316406 98.136719 340.589844 98.136719 317.183594 L 98.136719 234.945312 C 98.136719 211.277344 118.316406 191.066406 142.722656 191.066406 L 231.855469 191.066406 C 261.546875 191.066406 287.601562 165.980469 287.601562 136.242188 L 287.601562 97.882812 L 321.023438 97.882812 C 346.984375 97.882812 359.203125 116.738281 365.609375 141.730469 C 374.523438 176.441406 374.921875 202.398438 365.609375 229.457031 C 356.59375 255.742188 346.949219 273.304688 321.023438 273.304688 L 187.285156 273.304688 L 187.285156 284.285156 L 276.421875 284.285156 L 276.421875 317.183594 Z M 276.441406 317.183594"/></clipPath><linearGradient x1="812.247" gradientTransform="matrix(1.87153 0 0 1.82974 -1242.361 -942.268)" xmlns:xlink="http://www.w3.org/1999/xlink" y1="574.906" x2="663.592" gradientUnits="userSpaceOnUse" y2="573.717" xlink:type="simple" xlink:actuate="onLoad" id="c" xlink:show="other"><stop stop-color="#366A96" offset="0"/><stop stop-color="#366A96" offset=".008"/><stop stop-color="#366A97" offset=".031"/><stop stop-color="#366B97" offset=".063"/><stop stop-color="#366B98" offset=".094"/><stop stop-color="#366C99" offset=".125"/><stop stop-color="#366C9A" offset=".156"/><stop stop-color="#366D9A" offset=".188"/><stop stop-color="#366D9B" offset=".219"/><stop stop-color="#366E9C" offset=".25"/><stop stop-color="#366E9D" offset=".281"/><stop stop-color="#366F9E" offset=".313"/><stop stop-color="#366F9E" offset=".344"/><stop stop-color="#366F9F" offset=".375"/><stop stop-color="#3670A0" offset=".406"/><stop stop-color="#3670A1" offset=".438"/><stop stop-color="#3671A2" offset=".469"/><stop stop-color="#3671A3" offset=".5"/><stop stop-color="#3672A3" offset=".531"/><stop stop-color="#3672A4" offset=".563"/><stop stop-color="#3673A5" offset=".594"/><stop stop-color="#3673A6" offset=".625"/><stop stop-color="#3674A7" offset=".656"/><stop stop-color="#3674A8" offset=".688"/><stop stop-color="#3675A8" offset=".719"/><stop stop-color="#3675A9" offset=".75"/><stop stop-color="#3676AA" offset=".781"/><stop stop-color="#3676AB" offset=".813"/><stop stop-color="#3677AC" offset=".844"/><stop stop-color="#3677AD" offset=".875"/><stop stop-color="#3678AD" offset=".906"/><stop stop-color="#3678AE" offset=".938"/><stop stop-color="#3679AF" offset=".969"/><stop stop-color="#3679B0" offset=".992"/><stop stop-color="#3679B0" offset="1"/></linearGradient><linearGradient x1="864.151" gradientTransform="matrix(1.87153 0 0 1.82974 -1242.361 -942.268)" xmlns:xlink="http://www.w3.org/1999/xlink" y1="642.18" x2="716.259" gradientUnits="userSpaceOnUse" y2="642.18" xlink:type="simple" xlink:actuate="onLoad" id="f" xlink:show="other"><stop stop-color="#FFC836" offset="0"/><stop stop-color="#FFC836" offset=".031"/><stop stop-color="#FFC937" offset=".063"/><stop stop-color="#FFC938" offset=".094"/><stop stop-color="#FFCA39" offset=".125"/><stop stop-color="#FFCA3A" offset=".156"/><stop stop-color="#FFCB3B" offset=".188"/><stop stop-color="#FFCB3C" offset=".219"/><stop stop-color="#FFCC3D" offset=".25"/><stop stop-color="#FFCC3E" offset=".281"/><stop stop-color="#FFCD3F" offset=".313"/><stop stop-color="#FFCD40" offset=".344"/><stop stop-color="#FFCE41" offset=".375"/><stop stop-color="#FFCE42" offset=".406"/><stop stop-color="#FFCF43" offset=".438"/><stop stop-color="#FFCF44" offset=".469"/><stop stop-color="#FFD045" offset=".5"/><stop stop-color="#FFD046" offset=".531"/><stop stop-color="#FFD147" offset=".563"/><stop stop-color="#FFD148" offset=".594"/><stop stop-color="#FFD249" offset=".625"/><stop stop-color="#FFD24A" offset=".656"/><stop stop-color="#FFD34B" offset=".688"/><stop stop-color="#FFD34C" offset=".719"/><stop stop-color="#FFD44D" offset=".75"/><stop stop-color="#FFD44E" offset=".781"/><stop stop-color="#FFD54F" offset=".813"/><stop stop-color="#FFD550" offset=".844"/><stop stop-color="#FFD651" offset=".875"/><stop stop-color="#FFD652" offset=".906"/><stop stop-color="#FFD752" offset=".938"/><stop stop-color="#FFD753" offset=".969"/><stop stop-color="#FFD854" offset="1"/></linearGradient></defs><g clip-path="url(#a)"><g clip-path="url(#b)"><path fill="url(#c)" d="M 0.414062 4.125 L 0.414062 273.308594 L 276.441406 273.308594 L 276.441406 4.125 Z M 0.414062 4.125"/></g></g><g clip-path="url(#d)"><g clip-path="url(#e)"><path fill="url(#f)" d="M 98.136719 97.882812 L 98.136719 370.523438 L 374.921875 370.523438 L 374.921875 97.882812 Z M 98.136719 97.882812"/></g></g><path fill="#FFF" d="M 120.429688 48.539062 C 120.429688 39.433594 127.894531 32.070312 137.140625 32.070312 C 146.355469 32.070312 153.855469 39.433594 153.855469 48.539062 C 153.855469 57.613281 146.355469 64.972656 137.140625 64.972656 C 127.898438 64.972656 120.429688 57.613281 120.429688 48.539062 Z M 220.722656 322.632812 C 220.722656 313.558594 228.222656 306.199219 237.4375 306.199219 C 246.683594 306.199219 254.148438 313.5625 254.148438 322.632812 C 254.148438 331.738281 246.6875 339.101562 237.4375 339.101562 C 228.222656 339.101562 220.722656 331.742188 220.722656 322.632812 Z M 220.722656 322.632812"/></svg>