<?xml version="1.0" encoding="UTF-8"?><svg xmlns="http://www.w3.org/2000/svg" xmlns:xlink="http://www.w3.org/1999/xlink" contentScriptType="text/ecmascript" width="375" zoomAndPan="magnify" contentStyleType="text/css" viewBox="0 0 375 374.999991" height="374.999991" preserveAspectRatio="xMidYMid meet" version="1.0"><defs><clipPath id="clip-0"><path d="M 101 41.183594 L 177 41.183594 L 177 125 L 101 125 Z M 101 41.183594 " clip-rule="nonzero"/></clipPath><clipPath id="clip-1"><path d="M 45.441406 92 L 237 92 L 237 333.683594 L 45.441406 333.683594 Z M 45.441406 92 " clip-rule="nonzero"/></clipPath><clipPath id="clip-2"><path d="M 62 92 L 254 92 L 254 333.683594 L 62 333.683594 Z M 62 92 " clip-rule="nonzero"/></clipPath><clipPath id="clip-3"><path d="M 120 41.183594 L 197 41.183594 L 197 125 L 120 125 Z M 120 41.183594 " clip-rule="nonzero"/></clipPath><clipPath id="clip-4"><path d="M 158 200 L 313 200 L 313 333.683594 L 158 333.683594 Z M 158 200 " clip-rule="nonzero"/></clipPath><clipPath id="clip-5"><path d="M 175 200 L 329.691406 200 L 329.691406 333.683594 L 175 333.683594 Z M 175 200 " clip-rule="nonzero"/></clipPath><clipPath id="clip-6"><path d="M 219.527344 244 L 292.277344 244 L 292.277344 309 L 219.527344 309 Z M 219.527344 244 " clip-rule="nonzero"/></clipPath></defs><g clip-path="url(#clip-0)"><path fill="rgb(6.269836%, 5.879211%, 5.879211%)" d="M 172.515625 124.441406 C 170.117188 124.441406 168.167969 122.496094 168.167969 120.097656 L 168.167969 79.203125 C 168.167969 63.109375 155.066406 50.015625 138.957031 50.015625 C 122.847656 50.015625 109.734375 63.109375 109.734375 79.203125 L 109.734375 120.097656 C 109.734375 122.496094 107.796875 124.441406 105.398438 124.441406 C 103 124.441406 101.054688 122.496094 101.054688 120.097656 L 101.054688 79.203125 C 101.054688 58.328125 118.050781 41.339844 138.957031 41.339844 C 159.851562 41.339844 176.863281 58.328125 176.863281 79.203125 L 176.863281 120.097656 C 176.863281 122.496094 174.914062 124.441406 172.515625 124.441406 " fill-opacity="1" fill-rule="nonzero"/></g><g clip-path="url(#clip-1)"><path fill="rgb(96.859741%, 57.649231%, 14.898682%)" d="M 236.535156 322.996094 C 236.535156 328.796875 231.789062 333.523438 225.988281 333.523438 L 55.976562 333.523438 C 50.175781 333.523438 45.429688 328.796875 45.429688 322.996094 L 65.199219 103.347656 C 65.199219 97.5625 69.945312 92.820312 75.75 92.820312 L 206.214844 92.820312 C 212.019531 92.820312 216.765625 97.5625 216.765625 103.347656 L 236.535156 322.996094 " fill-opacity="1" fill-rule="nonzero"/></g><g clip-path="url(#clip-2)"><path fill="rgb(97.648621%, 68.629456%, 13.729858%)" d="M 253.792969 322.996094 C 253.792969 328.796875 249.046875 333.523438 243.253906 333.523438 L 73.234375 333.523438 C 67.429688 333.523438 62.683594 328.796875 62.683594 322.996094 L 82.46875 103.347656 C 82.46875 97.5625 87.203125 92.820312 93.003906 92.820312 L 223.484375 92.820312 C 229.277344 92.820312 234.023438 97.5625 234.023438 103.347656 L 253.792969 322.996094 " fill-opacity="1" fill-rule="nonzero"/></g><path fill="rgb(96.859741%, 57.649231%, 14.898682%)" d="M 134.148438 120.097656 C 134.148438 125.664062 129.632812 130.175781 124.074219 130.175781 C 118.503906 130.175781 113.988281 125.664062 113.988281 120.097656 C 113.988281 114.53125 118.503906 110.035156 124.074219 110.035156 C 129.632812 110.035156 134.148438 114.53125 134.148438 120.097656 " fill-opacity="1" fill-rule="nonzero"/><path fill="rgb(96.859741%, 57.649231%, 14.898682%)" d="M 202.488281 120.097656 C 202.488281 125.664062 197.972656 130.175781 192.414062 130.175781 C 186.84375 130.175781 182.332031 125.664062 182.332031 120.097656 C 182.332031 114.53125 186.84375 110.035156 192.414062 110.035156 C 197.972656 110.035156 202.488281 114.53125 202.488281 120.097656 " fill-opacity="1" fill-rule="nonzero"/><g clip-path="url(#clip-3)"><path fill="rgb(7.839966%, 8.239746%, 8.239746%)" d="M 191.796875 124.441406 C 189.398438 124.441406 187.464844 122.496094 187.464844 120.097656 L 187.464844 79.203125 C 187.464844 63.109375 174.359375 50.015625 158.238281 50.015625 C 142.128906 50.015625 129.027344 63.109375 129.027344 79.203125 L 129.027344 120.097656 C 129.027344 122.496094 127.078125 124.441406 124.679688 124.441406 C 122.28125 124.441406 120.335938 122.496094 120.335938 120.097656 L 120.335938 79.203125 C 120.335938 58.328125 137.34375 41.339844 158.238281 41.339844 C 179.144531 41.339844 196.144531 58.328125 196.144531 79.203125 L 196.144531 120.097656 C 196.144531 122.496094 194.195312 124.441406 191.796875 124.441406 " fill-opacity="1" fill-rule="nonzero"/></g><path fill="rgb(6.269836%, 5.879211%, 5.879211%)" d="M 265.683594 232.378906 C 263.285156 232.378906 261.335938 230.445312 261.335938 228.046875 L 261.335938 187.152344 C 261.335938 171.058594 248.234375 157.96875 232.125 157.96875 C 216.015625 157.96875 202.902344 171.058594 202.902344 187.152344 L 202.902344 228.046875 C 202.902344 230.445312 200.953125 232.378906 198.554688 232.378906 C 196.167969 232.378906 194.222656 230.445312 194.222656 228.046875 L 194.222656 187.152344 C 194.222656 166.277344 211.21875 149.28125 232.125 149.28125 C 253.019531 149.28125 270.03125 166.277344 270.03125 187.152344 L 270.03125 228.046875 C 270.03125 230.445312 268.082031 232.378906 265.683594 232.378906 " fill-opacity="1" fill-rule="nonzero"/><g clip-path="url(#clip-4)"><path fill="rgb(82.348633%, 16.859436%, 20.388794%)" d="M 312.449219 322.996094 C 312.449219 328.796875 307.703125 333.523438 301.898438 333.523438 L 168.789062 333.523438 C 162.984375 333.523438 158.238281 328.796875 158.238281 322.996094 L 158.367188 211.296875 C 158.367188 205.5 163.113281 200.769531 168.917969 200.769531 L 299.382812 200.769531 C 305.1875 200.769531 309.933594 205.5 309.933594 211.296875 L 312.449219 322.996094 " fill-opacity="1" fill-rule="nonzero"/></g><g clip-path="url(#clip-5)"><path fill="rgb(93.728638%, 19.60907%, 23.919678%)" d="M 329.703125 322.996094 C 329.703125 328.796875 324.957031 333.523438 319.15625 333.523438 L 186.042969 333.523438 C 180.242188 333.523438 175.496094 328.796875 175.496094 322.996094 L 175.625 211.296875 C 175.625 205.5 180.371094 200.769531 186.171875 200.769531 L 316.640625 200.769531 C 322.445312 200.769531 327.191406 205.5 327.191406 211.296875 L 329.703125 322.996094 " fill-opacity="1" fill-rule="nonzero"/></g><path fill="rgb(82.348633%, 16.859436%, 20.388794%)" d="M 227.328125 228.046875 C 227.328125 233.613281 222.800781 238.113281 217.242188 238.113281 C 211.671875 238.113281 207.15625 233.613281 207.15625 228.046875 C 207.15625 222.480469 211.671875 217.972656 217.242188 217.972656 C 222.800781 217.972656 227.328125 222.480469 227.328125 228.046875 " fill-opacity="1" fill-rule="nonzero"/><path fill="rgb(82.348633%, 16.859436%, 20.388794%)" d="M 295.65625 228.046875 C 295.65625 233.613281 291.140625 238.113281 285.570312 238.113281 C 280.011719 238.113281 275.5 233.613281 275.5 228.046875 C 275.5 222.480469 280.011719 217.972656 285.570312 217.972656 C 291.140625 217.972656 295.65625 222.480469 295.65625 228.046875 " fill-opacity="1" fill-rule="nonzero"/><path fill="rgb(7.839966%, 8.239746%, 8.239746%)" d="M 284.964844 232.378906 C 282.566406 232.378906 280.617188 230.445312 280.617188 228.046875 L 280.617188 187.152344 C 280.617188 171.058594 267.515625 157.96875 251.40625 157.96875 C 235.296875 157.96875 222.195312 171.058594 222.195312 187.152344 L 222.195312 228.046875 C 222.195312 230.445312 220.246094 232.378906 217.847656 232.378906 C 215.449219 232.378906 213.503906 230.445312 213.503906 228.046875 L 213.503906 187.152344 C 213.503906 166.277344 230.5 149.28125 251.40625 149.28125 C 272.300781 149.28125 289.3125 166.277344 289.3125 187.152344 L 289.3125 228.046875 C 289.3125 230.445312 287.363281 232.378906 284.964844 232.378906 " fill-opacity="1" fill-rule="nonzero"/><g clip-path="url(#clip-6)"><path fill="rgb(0%, 84.709167%, 100%)" d="M 279.296875 265.484375 C 278.542969 265.226562 277.765625 264.984375 276.960938 264.753906 C 277.09375 264.21875 277.214844 263.691406 277.320312 263.171875 C 279.089844 254.660156 277.933594 247.800781 273.984375 245.542969 C 270.195312 243.375 264 245.632812 257.746094 251.03125 C 257.144531 251.550781 256.539062 252.101562 255.9375 252.675781 C 255.535156 252.296875 255.136719 251.925781 254.734375 251.574219 C 248.179688 245.804688 241.605469 243.371094 237.660156 245.636719 C 233.875 247.808594 232.753906 254.257812 234.347656 262.324219 C 234.5 263.105469 234.679688 263.898438 234.882812 264.710938 C 233.953125 264.972656 233.054688 265.25 232.195312 265.546875 C 224.511719 268.203125 219.601562 272.367188 219.601562 276.6875 C 219.601562 281.148438 224.871094 285.625 232.878906 288.335938 C 233.507812 288.550781 234.164062 288.753906 234.839844 288.945312 C 234.621094 289.820312 234.429688 290.675781 234.269531 291.515625 C 232.75 299.441406 233.9375 305.738281 237.710938 307.894531 C 241.609375 310.125 248.152344 307.832031 254.523438 302.3125 C 255.027344 301.878906 255.53125 301.414062 256.035156 300.929688 C 256.695312 301.554688 257.351562 302.148438 258 302.703125 C 264.171875 307.96875 270.265625 310.09375 274.035156 307.929688 C 277.929688 305.695312 279.195312 298.929688 277.550781 290.703125 C 277.425781 290.074219 277.28125 289.433594 277.117188 288.78125 C 277.578125 288.644531 278.027344 288.503906 278.46875 288.363281 C 286.792969 285.625 292.207031 281.207031 292.207031 276.6875 C 292.207031 272.351562 287.136719 268.160156 279.296875 265.484375 Z M 277.492188 285.441406 C 277.09375 285.574219 276.6875 285.699219 276.273438 285.820312 C 275.355469 282.9375 274.113281 279.871094 272.59375 276.703125 C 274.042969 273.609375 275.234375 270.582031 276.128906 267.714844 C 276.871094 267.929688 277.589844 268.15625 278.285156 268.390625 C 285.003906 270.683594 289.105469 274.074219 289.105469 276.6875 C 289.105469 279.46875 284.679688 283.082031 277.492188 285.441406 Z M 274.507812 291.300781 C 275.238281 294.9375 275.339844 298.226562 274.859375 300.800781 C 274.425781 303.113281 273.554688 304.652344 272.480469 305.269531 C 270.191406 306.582031 265.300781 304.875 260.023438 300.375 C 259.417969 299.855469 258.808594 299.304688 258.199219 298.722656 C 260.242188 296.503906 262.289062 293.925781 264.285156 291.0625 C 267.792969 290.753906 271.109375 290.25 274.117188 289.558594 C 274.265625 290.152344 274.394531 290.730469 274.507812 291.300781 Z M 244.355469 305.039062 C 242.121094 305.824219 240.339844 305.847656 239.261719 305.230469 C 236.972656 303.921875 236.019531 298.867188 237.320312 292.085938 C 237.46875 291.3125 237.644531 290.511719 237.847656 289.699219 C 240.824219 290.351562 244.113281 290.820312 247.632812 291.101562 C 249.640625 293.902344 251.746094 296.480469 253.867188 298.734375 C 253.402344 299.179688 252.941406 299.601562 252.480469 299.996094 C 249.664062 302.441406 246.84375 304.171875 244.355469 305.039062 Z M 233.882812 285.425781 C 230.339844 284.226562 227.417969 282.667969 225.414062 280.964844 C 223.613281 279.4375 222.703125 277.917969 222.703125 276.6875 C 222.703125 274.066406 226.644531 270.722656 233.21875 268.449219 C 234.015625 268.175781 234.851562 267.914062 235.71875 267.671875 C 236.625 270.601562 237.820312 273.664062 239.257812 276.761719 C 237.800781 279.902344 236.589844 283.015625 235.671875 285.984375 C 235.054688 285.804688 234.457031 285.621094 233.882812 285.425781 Z M 237.390625 261.734375 C 236.027344 254.820312 236.933594 249.605469 239.214844 248.296875 C 241.644531 246.902344 247.015625 248.890625 252.675781 253.875 C 253.039062 254.191406 253.402344 254.527344 253.765625 254.871094 C 251.65625 257.117188 249.570312 259.671875 247.582031 262.460938 C 244.164062 262.773438 240.898438 263.277344 237.890625 263.953125 C 237.703125 263.199219 237.535156 262.457031 237.390625 261.734375 Z M 268.710938 269.402344 C 267.992188 268.171875 267.253906 266.96875 266.503906 265.800781 C 268.820312 266.089844 271.039062 266.476562 273.121094 266.949219 C 272.5 268.9375 271.71875 271.015625 270.800781 273.148438 C 270.140625 271.90625 269.445312 270.65625 268.710938 269.402344 Z M 255.9375 257.070312 C 257.371094 258.605469 258.800781 260.320312 260.210938 262.183594 C 258.792969 262.117188 257.351562 262.082031 255.902344 262.082031 C 254.46875 262.082031 253.042969 262.113281 251.628906 262.179688 C 253.039062 260.335938 254.484375 258.621094 255.9375 257.070312 Z M 243.085938 269.421875 C 242.367188 270.65625 241.683594 271.898438 241.035156 273.144531 C 240.132812 271.019531 239.359375 268.933594 238.726562 266.917969 C 240.800781 266.457031 243.007812 266.082031 245.3125 265.796875 C 244.546875 266.976562 243.804688 268.183594 243.085938 269.421875 Z M 245.378906 287.796875 C 243 287.535156 240.757812 287.179688 238.6875 286.730469 C 239.328125 284.679688 240.117188 282.546875 241.039062 280.375 C 241.6875 281.621094 242.375 282.863281 243.097656 284.101562 C 243.832031 285.363281 244.59375 286.59375 245.378906 287.796875 Z M 256.023438 296.523438 C 254.554688 294.949219 253.085938 293.210938 251.65625 291.339844 C 253.046875 291.394531 254.464844 291.421875 255.902344 291.421875 C 257.382812 291.421875 258.847656 291.386719 260.285156 291.324219 C 258.875 293.230469 257.445312 294.972656 256.023438 296.523438 Z M 270.828125 280.265625 C 271.796875 282.460938 272.617188 284.582031 273.265625 286.597656 C 271.164062 287.074219 268.886719 287.457031 266.492188 287.742188 C 267.25 286.558594 267.992188 285.335938 268.722656 284.078125 C 269.464844 282.808594 270.164062 281.535156 270.828125 280.265625 Z M 266.035156 282.542969 C 264.898438 284.496094 263.734375 286.355469 262.550781 288.113281 C 260.398438 288.265625 258.171875 288.34375 255.902344 288.34375 C 253.644531 288.34375 251.445312 288.277344 249.328125 288.140625 C 248.097656 286.359375 246.910156 284.492188 245.78125 282.5625 C 244.65625 280.636719 243.621094 278.691406 242.683594 276.761719 C 243.621094 274.828125 244.652344 272.878906 245.773438 270.957031 C 246.894531 269.03125 248.074219 267.171875 249.292969 265.402344 C 251.453125 265.242188 253.667969 265.15625 255.902344 265.15625 C 258.152344 265.15625 260.367188 265.242188 262.527344 265.40625 C 263.730469 267.160156 264.898438 269.015625 266.027344 270.941406 C 267.164062 272.890625 268.210938 274.824219 269.15625 276.71875 C 268.210938 278.644531 267.167969 280.597656 266.035156 282.542969 Z M 272.433594 248.203125 C 274.867188 249.59375 275.8125 255.199219 274.28125 262.550781 C 274.1875 263.019531 274.074219 263.5 273.957031 263.984375 C 270.945312 263.292969 267.675781 262.78125 264.25 262.460938 C 262.253906 259.644531 260.1875 257.085938 258.109375 254.867188 C 258.667969 254.335938 259.226562 253.828125 259.78125 253.351562 C 265.140625 248.726562 270.152344 246.898438 272.433594 248.203125 Z M 255.902344 270.257812 C 259.484375 270.257812 262.386719 273.136719 262.386719 276.6875 C 262.386719 280.234375 259.484375 283.113281 255.902344 283.113281 C 252.324219 283.113281 249.421875 280.234375 249.421875 276.6875 C 249.421875 273.136719 252.324219 270.257812 255.902344 270.257812 Z M 255.902344 270.257812 " fill-opacity="1" fill-rule="nonzero"/></g></svg>