<svg xmlns="http://www.w3.org/2000/svg" width="375" viewBox="0 0 375 375" height="375" version="1.0"><path fill="#B71C1C" d="M 365.644531 228.191406 C 365.644531 222.773438 351.328125 218.386719 333.644531 218.386719 C 318.257812 218.386719 305.453125 221.710938 302.371094 226.132812 C 271.925781 211.726562 241.46875 197.316406 211.023438 182.898438 C 200.425781 177.878906 188.328125 177.933594 177.757812 183.019531 C 145.339844 198.644531 112.921875 214.269531 80.503906 229.894531 C 73.167969 228.820312 64.3125 228.183594 54.761719 228.183594 C 29.484375 228.191406 9.039062 232.582031 9.039062 238 L 9.039062 267.429688 C 9.039062 267.710938 9.320312 267.972656 9.421875 268.246094 C 8.183594 272.96875 10.015625 278.496094 14.933594 280.816406 C 62.828125 303.484375 110.714844 326.144531 158.609375 348.8125 C 170.769531 354.570312 184.660156 354.519531 196.785156 348.675781 C 251.480469 322.308594 306.175781 295.949219 360.882812 269.582031 C 364.992188 267.601562 366.410156 262.894531 365.203125 258.976562 C 365.398438 258.523438 365.644531 258.082031 365.644531 257.613281 Z M 365.644531 228.191406"/><path fill="#E53935" d="M 158.609375 311.90625 C 110.714844 290.453125 62.828125 269.003906 14.933594 247.550781 C 7.105469 244.046875 7.070312 232.863281 14.875 229.296875 C 69.171875 204.53125 123.460938 179.761719 177.757812 154.992188 C 188.320312 150.167969 200.425781 150.125 211.023438 154.871094 C 260.957031 177.242188 310.898438 199.605469 360.828125 221.976562 C 367.230469 224.839844 367.265625 234 360.882812 236.910156 C 306.183594 261.867188 251.488281 286.824219 196.785156 311.769531 C 184.660156 317.300781 170.769531 317.351562 158.609375 311.90625 Z M 158.609375 311.90625"/><path fill="#B71C1C" d="M 365.644531 163.199219 C 365.644531 157.78125 351.328125 153.390625 333.644531 153.390625 C 318.257812 153.390625 305.453125 156.71875 302.371094 161.140625 C 271.925781 146.730469 241.46875 132.324219 211.023438 117.90625 C 200.425781 112.886719 188.328125 112.9375 177.757812 118.023438 C 145.339844 133.652344 112.921875 149.277344 80.503906 164.902344 C 73.167969 163.828125 64.3125 163.191406 54.761719 163.191406 C 29.484375 163.199219 9.039062 167.597656 9.039062 173.015625 L 9.039062 202.445312 C 9.039062 202.726562 9.320312 202.988281 9.421875 203.261719 C 8.183594 207.984375 10.015625 213.511719 14.933594 215.832031 C 62.828125 238.5 110.714844 261.160156 158.609375 283.828125 C 170.769531 289.585938 184.660156 289.535156 196.785156 283.691406 C 251.480469 257.324219 306.175781 230.964844 360.882812 204.597656 C 364.992188 202.617188 366.410156 197.910156 365.203125 193.992188 C 365.398438 193.539062 365.644531 193.097656 365.644531 192.628906 Z M 365.644531 163.199219"/><path fill="#E53935" d="M 158.609375 246.914062 C 110.714844 225.460938 62.828125 204.011719 14.933594 182.558594 C 7.105469 179.054688 7.070312 167.871094 14.875 164.304688 C 69.171875 139.535156 123.460938 114.769531 177.757812 90 C 188.320312 85.175781 200.425781 85.132812 211.023438 89.878906 C 260.957031 112.25 310.898438 134.613281 360.828125 156.980469 C 367.230469 159.847656 367.265625 169.007812 360.882812 171.917969 C 306.183594 196.875 251.488281 221.832031 196.785156 246.777344 C 184.660156 252.316406 170.769531 252.367188 158.609375 246.914062 Z M 158.609375 246.914062"/><path fill="#B71C1C" d="M 365.644531 98.214844 C 365.644531 92.796875 351.328125 88.40625 333.644531 88.40625 C 318.257812 88.40625 305.453125 91.734375 302.371094 96.15625 C 271.925781 81.75 241.46875 67.339844 211.023438 52.921875 C 200.425781 47.902344 188.328125 47.953125 177.757812 53.042969 C 145.339844 68.667969 112.921875 84.292969 80.503906 99.917969 C 73.167969 98.84375 64.3125 98.207031 54.761719 98.207031 C 29.484375 98.214844 9.039062 102.605469 9.039062 108.023438 L 9.039062 137.453125 C 9.039062 137.734375 9.320312 137.996094 9.421875 138.269531 C 8.183594 142.988281 10.015625 148.519531 14.933594 150.839844 C 62.828125 173.507812 110.714844 196.167969 158.609375 218.835938 C 170.769531 224.59375 184.660156 224.542969 196.785156 218.699219 C 251.480469 192.332031 306.175781 165.972656 360.882812 139.605469 C 364.992188 137.621094 366.410156 132.917969 365.203125 128.996094 C 365.398438 128.546875 365.644531 128.105469 365.644531 127.636719 Z M 365.644531 98.214844"/><path fill="#E53935" d="M 158.609375 181.929688 C 110.714844 160.476562 62.828125 139.027344 14.933594 117.574219 C 7.105469 114.070312 7.070312 102.886719 14.875 99.320312 C 69.171875 74.550781 123.460938 49.785156 177.757812 25.015625 C 188.320312 20.191406 200.425781 20.148438 211.023438 24.894531 C 260.957031 47.265625 310.898438 69.628906 360.828125 91.996094 C 367.230469 94.863281 367.265625 104.023438 360.882812 106.933594 C 306.183594 131.890625 251.488281 156.847656 196.785156 181.792969 C 184.660156 187.332031 170.769531 187.375 158.609375 181.929688 Z M 158.609375 181.929688"/><path fill="#FFF" d="M 142.75 104.21875 C 142.734375 113.082031 119.300781 121.71875 99.507812 121.964844 C 78.96875 122.21875 54.738281 113.515625 54.660156 104.519531 C 54.582031 95.492188 78.789062 86.136719 99.753906 86.359375 C 119.5625 86.5625 142.773438 95.390625 142.75 104.21875 Z M 142.75 104.21875"/><path fill="#FFF" d="M 128.230469 135.945312 C 148.550781 144.640625 168.859375 153.339844 189.175781 162.035156 C 198.125 148.765625 207.074219 135.496094 216.023438 122.226562 C 186.757812 126.804688 157.496094 131.378906 128.230469 135.945312 Z M 128.230469 135.945312"/><path fill="#FFF" d="M 169.171875 61.980469 C 159.824219 65.390625 150.46875 68.792969 141.121094 72.203125 C 153.914062 73.328125 166.71875 74.449219 179.515625 75.5625 C 183.589844 82.335938 187.65625 89.105469 191.730469 95.867188 C 194.238281 89.726562 196.742188 83.585938 199.246094 77.445312 C 210.164062 76.59375 221.082031 75.742188 232.003906 74.890625 C 223.539062 71.328125 215.074219 67.757812 206.609375 64.183594 C 208.765625 59.011719 210.921875 53.839844 213.078125 48.660156 C 204.839844 51.128906 196.613281 53.59375 188.378906 56.0625 C 179.292969 52.472656 170.207031 48.890625 161.125 45.300781 C 163.804688 50.863281 166.488281 56.425781 169.171875 61.980469 Z M 169.171875 61.980469"/><path fill="#B71C1C" d="M 215.082031 103.183594 C 234.363281 95.476562 253.652344 87.761719 272.9375 80.054688 C 289.59375 87.148438 306.253906 94.242188 322.910156 101.335938 C 304.214844 108.789062 285.527344 116.238281 266.832031 123.699219 C 249.585938 116.851562 232.332031 110.019531 215.082031 103.183594 Z M 215.082031 103.183594"/><path fill="#A01C1C" d="M 272.945312 80.589844 C 272.902344 94.167969 272.859375 107.734375 272.816406 121.308594 C 289.519531 114.648438 306.21875 107.996094 322.917969 101.335938 C 306.261719 94.421875 289.601562 87.507812 272.945312 80.589844 Z M 272.945312 80.589844"/></svg>